<?xml version="1.0" standalone="no"?>
<!DOCTYPE svg PUBLIC "-//W3C//DTD SVG 1.1//EN" "http://www.w3.org/Graphics/SVG/1.1/DTD/svg11.dtd" >
<svg xmlns="http://www.w3.org/2000/svg">
<metadata>Generated by IcoMoon</metadata>
<defs>
<font id="icomoonApp" horiz-adv-x="1024">
<font-face units-per-em="1024" ascent="960" descent="-64" />
<missing-glyph horiz-adv-x="1024" />
<glyph unicode="&#x20;" horiz-adv-x="512" d="" />
<glyph unicode="&#x10ff75;" glyph-name="c98_venture" d="M879.77 402.334c-16.213 0-29.867 12.373-32 28.587-10.24 96.427-62.293 183.891-142.507 239.358-14.507 10.24-17.92 29.867-8.107 44.373 10.24 14.507 30.293 17.92 44.373 8.107 95.573-66.133 157.013-170.24 169.387-285.011 1.707-17.493-10.667-33.28-28.587-35.413-0.427 0-1.707 0-2.56 0zM148.903 400.205c-1.28 0-2.133 0-3.413 0-17.493 2.133-30.293 17.92-28.587 35.413 11.52 114.771 72.533 218.451 166.827 285.437 14.507 10.24 34.56 6.827 44.8-7.68s6.827-34.56-7.68-44.8c-79.36-55.893-130.56-143.357-140.373-239.784-1.28-16.213-15.36-28.587-31.573-28.587zM514.56-4.693c-63.147 0-123.308 14.507-179.628 42.667-15.787 8.107-22.187 27.307-14.080 43.093s27.307 22.187 43.093 14.080c92.161-46.507 203.095-47.36 296.108-2.56 15.787 7.68 34.987 0.853 42.667-14.933s0.853-34.987-14.933-42.667c-54.613-26.453-112.64-39.68-173.227-39.68zM514.53 599.898c-83.2 0-150.613 67.413-150.613 150.613s67.413 150.613 150.613 150.613c83.2 0 150.613-67.413 150.613-150.613s-67.84-150.613-150.613-150.613zM514.53 836.698c-47.787 0-86.613-38.827-86.613-86.613s38.827-86.613 86.613-86.613c47.787 0 86.613 38.827 86.613 86.613s-39.253 86.613-86.613 86.613zM206.113 78.063c-83.2 0-150.613 67.413-150.613 150.613 0 82.773 67.413 150.613 150.613 150.613s150.613-67.413 150.613-150.613c0-82.773-67.413-150.613-150.613-150.613zM206.113 315.29c-47.787 0-86.613-38.827-86.613-86.613s38.827-86.613 86.613-86.613c47.787 0 86.613 38.827 86.613 86.613s-38.827 86.613-86.613 86.613zM817.946 78.063c-83.2 0-150.613 67.413-150.613 150.613 0 82.773 67.413 150.613 150.613 150.613s150.613-67.413 150.613-150.613c-0.427-82.773-67.84-150.613-150.613-150.613zM817.946 315.29c-47.787 0-86.613-38.827-86.613-86.613s38.827-86.613 86.613-86.613c47.787 0 86.613 38.827 86.613 86.613-0.427 47.787-38.827 86.613-86.613 86.613z" />
<glyph unicode="&#x10ff76;" glyph-name="c98_about" d="M324.267 814.933c-110.933 0-179.2-76.8-179.2-192v-349.867c0-115.2 72.533-192 179.2-192h371.2c110.933 0 179.2 76.8 179.2 192v349.867c0 115.2-72.533 192-179.2 192h-371.2zM699.733 21.333h-375.467c-140.8 0-238.933 102.4-238.933 251.733v349.867c0 149.333 98.133 251.733 238.933 251.733h371.2c145.067 0 243.2-102.4 243.2-251.733v-349.867c0-149.333-98.133-251.733-238.933-251.733zM533.333 328.533c-17.067 0-34.133 12.8-34.133 34.133v256c0 17.067 12.8 34.133 34.133 34.133s34.133-12.8 34.133-34.133v-256c-4.267-17.067-17.067-34.133-34.133-34.133zM533.333 226.133c-17.067 0-34.133 12.8-34.133 34.133s12.8 34.133 29.867 34.133v0c17.067 0 34.133-12.8 34.133-34.133s-12.8-34.133-29.867-34.133z" />
<glyph unicode="&#x10ff77;" glyph-name="c98_careers" d="M921.6 674.133c-38.4 42.667-102.4 64-192 64h-12.8c0 76.8 0 170.667-170.667 170.667h-68.267c-170.667 0-170.667-93.867-170.667-170.667v-4.267h-8.533c-93.867 0-157.867-21.333-192-64-42.667-51.2-42.667-115.2-38.4-162.133l34.133-341.333c8.533-89.6 46.933-179.2 243.2-179.2h341.333c196.267 0 234.667 93.867 243.2 179.2l34.133 341.333c0 51.2 0 115.2-42.667 166.4zM375.467 738.133c0 76.8 0 106.667 106.667 106.667h68.267c106.667 0 106.667-29.867 106.667-106.667v-4.267l-281.6 4.267zM153.6 631.467c25.6 29.867 76.8 42.667 145.067 42.667h42.667c0 0 0 0 0 0s0 0 0 0h341.333c0 0 0 0 0 0s0 0 0 0h42.667c72.533 0 123.733-12.8 145.067-42.667 21.333-21.333 29.867-59.733 21.333-110.933v-8.533c-76.8-55.467-170.667-93.867-264.533-110.933v4.267c0 59.733-12.8 76.8-76.8 76.8h-85.333c-59.733 0-76.8-12.8-76.8-76.8v-8.533c-93.867 17.067-183.467 51.2-264.533 106.667v12.8c0 55.467 8.533 89.6 29.867 115.2zM563.2 413.867c0-4.267 0-8.533 0-8.533v-42.667c0-46.933 0-51.2-51.2-51.2s-51.2 8.533-51.2 51.2v42.667c0 4.267 0 8.533 0 8.533 4.267 0 8.533 0 8.533 0h85.333c4.267 0 8.533 0 8.533 0zM861.867 179.2c-8.533-68.267-25.6-123.733-179.2-123.733h-341.333c-153.6 0-170.667 55.467-179.2 123.733l-21.333 247.467c81.067-46.933 166.4-76.8 256-89.6 4.267-42.667 21.333-89.6 115.2-89.6s110.933 46.933 115.2 89.6c89.6 17.067 179.2 46.933 256 93.867l-21.333-251.733z" />
<glyph unicode="&#x10ff78;" glyph-name="c98_communities" d="M768.013 622.516c-1.28 0-2.133 0-3.413 0h-2.133c-80.64 2.56-140.8 64.854-140.8 141.654 0 78.507 64 142.080 142.080 142.080s142.080-64 142.080-142.080c-0.427-77.227-60.587-139.52-137.387-142.080 0 0.427 0 0.426-0.427 0.426zM763.746 842.676c-43.093 0-78.080-34.987-78.080-78.080 0-42.24 32.853-76.373 75.093-78.080 0.427 0.427 3.84 0.427 7.68 0 41.387 2.133 73.387 36.267 73.813 78.080 0 43.093-34.987 78.080-78.507 78.080zM768.448 308.070c-16.64 0-33.28 1.28-49.92 4.267-17.493 2.987-29.013 19.627-26.027 37.12s19.627 29.013 37.12 26.027c52.48-8.96 107.947 0.849 145.067 25.596 20.053 13.227 30.72 29.871 30.72 46.511s-11.093 32.853-30.72 46.080c-37.12 24.747-93.44 34.56-146.347 25.173-17.493-3.413-34.133 8.533-37.12 26.024-2.987 17.493 8.533 34.133 26.027 37.12 69.547 12.373 141.653-0.853 192.853-34.986 37.547-25.171 59.307-61.011 59.307-99.411 0-37.973-21.333-74.244-59.307-99.844-38.827-25.6-89.173-39.676-141.653-39.676zM254.74 622.507c-0.427 0-0.853 0-0.853 0-76.8 2.56-136.96 64.853-137.387 141.653 0 78.507 64 142.507 142.080 142.507s142.080-64 142.080-142.080c0-77.227-60.16-139.52-136.96-142.080l-8.96 32 2.987-32c-0.853 0-2.133 0-2.987 0zM259.007 686.507c2.56 0 4.693 0 7.253-0.427 37.973 1.707 71.253 35.84 71.253 78.080 0 43.093-34.987 78.080-78.080 78.080s-78.080-34.987-78.080-78.080c0-41.813 32.427-75.52 73.813-78.080 0.427 0.427 2.133 0.427 3.84 0.427zM254.293 308.070c-52.48 0-102.827 14.076-141.653 39.676-37.547 25.173-59.307 61.444-59.307 99.844 0 37.973 21.76 74.24 59.307 99.411 51.2 34.133 123.307 47.36 192.853 34.986 17.493-2.987 29.013-19.627 26.027-37.12-2.987-17.491-19.627-29.437-37.12-26.024-52.907 9.387-108.8-0.427-146.347-25.173-20.053-13.227-30.72-29.44-30.72-46.080s11.093-33.284 30.72-46.511c37.12-24.747 92.587-34.556 145.067-25.596 17.493 2.987 34.133-8.96 37.12-26.027 2.987-17.493-8.533-34.133-26.027-37.12-16.64-2.987-33.28-4.267-49.92-4.267zM512.013 303.765c-1.28 0-2.133 0-3.413 0h-2.133c-80.64 2.56-140.8 64.853-140.8 141.653 0 78.507 64 142.081 142.080 142.081s142.080-64.001 142.080-142.081c-0.427-77.227-60.587-139.52-137.387-142.080 0 0.427 0 0.427-0.427 0.427zM507.746 523.925c-43.093 0-78.080-34.987-78.080-78.080 0-42.24 32.853-76.373 75.093-78.080 0.427 0.427 3.84 0.427 7.68 0 41.387 2.133 73.387 36.267 73.813 78.080 0 42.667-34.987 78.080-78.507 78.080zM511.97-11.081c-51.2 0-102.4 13.227-142.080 40.107-37.547 25.173-59.307 61.013-59.307 99.413 0 37.973 21.333 74.667 59.307 99.84 79.787 52.907 204.8 52.907 284.16 0 37.547-25.173 59.307-61.013 59.307-99.413 0-37.973-21.333-74.667-59.307-99.84-39.68-26.453-90.88-40.107-142.080-40.107zM405.303 174.519c-20.053-13.227-30.72-29.867-30.72-46.507s11.093-32.853 30.72-46.080c57.6-38.827 155.307-38.827 212.907 0 20.053 13.227 30.72 29.867 30.72 46.507s-11.093 32.853-30.72 46.080c-57.173 38.827-154.88 38.4-212.907 0z" />
<glyph unicode="&#x10ff79;" glyph-name="c98_exchange" d="M368.503 368.491c105.114-0.098 190.499 84.851 190.934 189.964 0.435 105.351-84.617 191.108-189.965 191.544-105.35 0.436-191.108-84.614-191.544-189.964-0.099-105.451 85.126-191.108 190.576-191.543zM215.597 519.962v3.29c0 14.26 11.56 25.821 25.821 25.821h10.243c-0.233 3.182-0.982 6.213-0.997 9.452-0.017 3.729 0.778 7.236 1.045 10.894h-10.291c-14.262 0-25.821 11.559-25.821 25.821v3.29c0 14.261 11.56 25.821 25.821 25.821h25.966c23.402 44.356 69.283 75.031 122.943 75.279 0 0 0.36 0 0.719 0h42.725c15.078 0 27.29-12.566 27.29-27.647s-12.211-27.287-27.29-27.287h-42.725c-21.129 0-40.244-7.821-55.278-20.345h64.402c14.262 0 25.821-11.56 25.821-25.821v-3.289c0-14.262-11.56-25.821-25.821-25.821h-94.551c-0.46-3.607-1.1-7.159-1.1-10.893-0.024-3.235 0.566-6.307 0.89-9.452h94.762c14.262 0 25.821-11.561 25.821-25.822v-3.29c0-14.259-11.56-25.822-25.821-25.822h-67.028c15.291-13.901 35.34-22.69 57.544-22.857h44.163c14.72 0 26.21-11.853 26.21-26.21 0-14.724-11.49-26.21-26.21-26.21h-43.804c-53.829 0-100.126 30.716-123.675 75.277h-25.953c-14.262 0-25.821 11.563-25.821 25.822zM732.719 165.303c13.53 3.776 23.582 15.411 23.876 30.238h-23.876v-30.238zM653.905 249.762h23.881v30.238c-13.534-3.776-23.582-15.411-23.881-30.238zM706.035 413.414c-105.353 0.435-191.108-84.612-191.543-189.965-0.102-105.451 85.124-191.108 190.575-191.543 105.114-0.102 190.498 84.851 190.933 189.965 0.435 105.353-84.617 191.108-189.965 191.543zM745.997 249.766h37.342c14.967 0 27.106-12.134 27.106-27.106v-27.106c0-44.745-34.163-80.862-77.734-85.295v-28.523c0-15.078-12.203-27.285-27.285-27.285-15.078 0-27.644 12.207-27.644 27.285v27.644h-50.445c-15.083 0-27.29 12.211-27.29 26.927 0 8.256 3.593 15.441 9.335 20.467 4.668 4.309 11.132 6.818 17.954 6.818h50.445v31.962h-50.628c-14.972 0-27.106 12.134-27.106 27.106v27.106c0 44.74 34.163 80.862 77.734 85.295v28.523c0 15.074 12.565 27.285 27.644 27.285 15.083 0 27.285-12.211 27.285-27.285v-27.644h50.449c15.078 0 27.285-12.211 27.285-26.927 0-8.256-3.593-15.441-9.335-20.467-4.668-4.309-11.132-6.818-17.95-6.818h-50.449v-31.962h13.286zM545.003 704.356c-10.564 10.54-10.543 27.663 0.051 38.176l125.124 124.191c10.411 10.771 27.648 10.411 38.059 0 9.335-9.695 10.411-24.414 2.513-34.828l-2.513-3.23-78.989-78.629c25.852 0 47.031 0 47.031 0 50.266 0 98.735-19.030 135.36-53.855 1.792-1.438 3.947-3.592 5.743-5.387 37.7-42.006 57.805-96.94 56.013-153.307v-97.3c0-14.72-11.849-26.927-26.931-26.927-14.72 0-26.927 12.207-26.927 26.927v97.3c1.796 42.366-12.565 83.654-40.572 115.609-27.644 28.006-64.986 43.085-103.761 43.085h-45.956l78.989-78.629c9.335-9.335 10.411-24.055 2.513-34.828l-2.513-3.23c-9.335-9.335-24.055-10.414-34.825-2.513l-3.234 2.513-125.175 124.862zM456.499 185.199c10.564-10.543 10.543-27.665-0.047-38.178l-125.126-124.19c-10.412-10.773-27.647-10.415-38.058 0-9.335 9.694-10.411 24.414-2.513 34.825l2.513 3.23 78.988 78.63c-25.852 0-47.034 0-47.034 0-50.266 0-98.735 19.029-135.357 53.854-1.795 1.438-3.949 3.593-5.743 5.389-37.701 42.005-57.807 96.939-56.012 153.306v97.301c0 14.72 11.849 26.927 26.928 26.927 14.722 0 26.928-12.207 26.928-26.927v-97.301c-1.795-42.364 12.567-83.652 40.571-115.61 27.647-28.006 64.986-43.085 103.762-43.085h45.958l-78.988 78.63c-9.335 9.335-10.411 24.055-2.513 34.829l2.513 3.23c9.335 9.335 24.055 10.411 34.826 2.513l3.232-2.513 125.173-124.86z" />
<glyph unicode="&#x10ff7a;" glyph-name="c98_labs" d="M512 437.308c-18.773 0-37.547 4.693-54.613 13.653l-277.76 149.76c-25.173 13.653-40.96 40.533-40.96 70.4s15.787 56.747 40.96 70.4l277.76 149.76c34.133 18.347 75.093 18.347 108.8 0l277.76-149.76c25.173-13.653 40.96-40.533 40.96-70.4s-15.787-56.747-40.96-70.4l-277.76-149.76c-16.64-9.387-35.413-13.653-54.187-13.653zM512 841.361c-8.107 0-16.64-2.133-24.32-6.4l-277.333-149.333c-7.253-3.84-7.68-11.947-7.68-14.507s0.427-10.667 7.68-14.080l277.76-149.76c15.36-8.107 32.853-8.107 48.213 0l277.76 149.76c6.827 3.84 7.68 11.947 7.68 14.080 0 2.56-0.427 10.667-7.68 14.080l-277.76 149.76c-7.68 4.267-16.213 6.4-24.32 6.4zM417.28-9.378c-11.947 0-24.32 2.987-35.413 8.533l-258.56 128.853c-43.093 21.76-69.973 65.28-69.973 113.493v244.053c0 27.733 14.080 52.908 37.547 67.415 23.893 14.507 52.48 15.787 77.227 3.413l258.56-128.855c43.093-21.76 69.973-64.853 69.973-113.493v-244.053c0-27.733-14.080-52.907-37.547-67.413-12.8-8.107-27.307-11.947-41.813-11.947zM132.693 500.915c-3.413 0-6.4-1.28-8.107-2.133-2.56-1.707-7.253-5.547-7.253-13.227v-244.053c0-23.893 13.227-45.653 34.56-56.32l258.133-129.28c6.827-3.413 12.373-0.853 14.933 0.427 2.56 1.707 7.253 5.547 7.253 13.227v244.053c0 23.893-13.227 45.653-34.56 56.32l-258.133 129.28c-2.56 1.28-4.693 1.707-6.827 1.707zM606.694-9.387c-14.507 0-29.013 3.84-41.813 11.947-23.467 14.507-37.547 39.68-37.547 67.413v244.053c0 48.213 26.88 91.733 69.973 113.493l258.133 129.28c24.747 12.373 53.76 11.093 77.227-3.413s37.547-39.68 37.547-67.413v-244.053c0-48.213-26.88-91.733-69.973-113.493l-258.133-129.28c-11.093-5.973-23.467-8.533-35.413-8.533zM891.281 500.907c-2.133 0-4.267-0.427-6.827-1.707l-258.133-129.28c-21.333-10.667-34.56-32-34.56-56.32v-244.053c0-7.68 4.693-11.52 7.253-13.227s8.107-3.84 14.933-0.427l258.133 129.28c21.333 10.667 34.56 32.427 34.56 56.32v244.053c0 7.68-4.693 11.52-7.253 13.227-1.707 0.853-4.693 2.133-8.107 2.133z" />
<glyph unicode="&#x10ff7b;" glyph-name="c98_network" d="M512 330.667c-64.853 0-117.333 52.48-117.333 117.333s52.48 117.333 117.333 117.333c64.853 0 117.333-52.48 117.333-117.333s-52.48-117.333-117.333-117.333zM512 501.333c-29.44 0-53.333-23.893-53.333-53.333s23.893-53.333 53.333-53.333c29.44 0 53.333 23.893 53.333 53.333s-23.893 53.333-53.333 53.333zM853.346 159.991c-6.827 0-13.227 2.133-19.2 6.4-14.080 10.667-17.067 30.72-6.4 44.8 51.627 68.693 78.933 150.613 78.933 236.8 0 86.183-27.307 168.102-78.933 236.796-10.667 14.080-7.68 34.134 6.4 44.801s34.133 7.68 44.8-6.4c60.16-79.787 91.733-174.934 91.733-275.197 0-100.267-31.573-195.413-91.733-275.2-6.4-8.533-15.787-12.8-25.6-12.8zM170.667 159.991c-9.813 0-19.2 4.267-25.6 12.8-60.16 79.787-91.733 174.933-91.733 275.2 0 100.263 31.573 195.41 91.733 275.197 10.667 14.080 30.721 17.066 44.801 6.4s17.067-30.721 6.4-44.801c-51.627-68.693-78.934-150.613-78.934-236.796 0-86.187 27.307-168.107 78.934-236.8 10.667-14.080 7.68-34.133-6.4-44.8-5.547-4.267-12.374-6.4-19.2-6.4zM716.843 262.413c-6.827 0-13.222 2.133-19.196 6.4-14.080 10.667-17.067 30.72-6.4 44.8 29.44 38.827 44.796 85.333 44.796 134.4s-15.356 95.573-44.796 134.4c-10.667 14.080-7.68 34.134 6.4 44.801s34.129 7.679 44.796-6.401c37.547-50.347 57.6-110.080 57.6-172.8s-20.053-122.88-57.6-172.8c-6.4-8.533-15.787-12.8-25.6-12.8zM307.2 262.413c-9.813 0-19.2 4.267-25.6 12.8-37.547 50.347-57.6 110.080-57.6 172.8s20.054 122.88 57.6 172.8c10.667 14.080 30.719 17.068 44.799 6.401s17.067-30.721 6.4-44.801c-29.44-38.827-44.8-85.333-44.8-134.4s15.36-95.573 44.8-134.4c10.667-14.080 7.68-34.133-6.4-44.8-5.547-4.267-12.372-6.4-19.199-6.4z" />
<glyph unicode="&#x10ff7c;" glyph-name="c98_press" d="M789.333 576c-82.432 0-149.333 66.901-149.333 149.333s66.901 149.333 149.333 149.333c82.432 0 149.333-66.901 149.333-149.333s-66.901-149.333-149.333-149.333zM789.333 814.933c-49.378 0-89.6-40.221-89.6-89.6s40.222-89.6 89.6-89.6c49.378 0 89.6 40.221 89.6 89.6s-40.222 89.6-89.6 89.6zM487.386 384h-164.104c-13.456 0-24.615 14.507-24.615 32s11.159 32 24.615 32h164.104c13.457 0 24.614-14.507 24.614-32s-11.157-32-24.614-32zM694.857 256h-365.713c-16.66 0-30.476 14.507-30.476 32s13.816 32 30.476 32h365.713c16.661 0 30.477-14.507 30.477-32s-13.815-32-30.477-32zM603.785 21.333h-226.234c-204.741 0-292.217 87.475-292.217 292.215v226.234c0 204.741 87.476 292.217 292.217 292.217h188.525c15.462 0 28.279-12.82 28.279-28.279s-12.817-28.279-28.279-28.279h-188.525c-173.822 0-235.659-61.837-235.659-235.659v-226.234c0-173.82 61.837-235.657 235.659-235.657h226.234c173.82 0 235.657 61.837 235.657 235.657v188.527c0 15.462 12.821 28.279 28.279 28.279s28.279-12.817 28.279-28.279v-188.527c0-204.74-87.475-292.215-292.215-292.215z" />
<glyph unicode="&#x10ff7d;" glyph-name="c98_token" d="M512-10.667c-253.013 0-458.667 205.653-458.667 458.667s205.653 458.667 458.667 458.667c253.013 0 458.667-205.653 458.667-458.667s-205.653-458.667-458.667-458.667zM512 842.667c-217.6 0-394.667-177.067-394.667-394.667s177.067-394.667 394.667-394.667c217.6 0 394.667 177.067 394.667 394.667s-177.067 394.667-394.667 394.667zM642.697 661.333c57.284 0 103.834-46.546 103.834-103.834 0-7.161 0-14.322 0-17.902-3.58-17.904-21.483-25.063-35.806-17.904-10.743 3.58-17.903 14.323-14.323 28.645 0 3.58 0 7.161 0 10.741 0 32.224-28.642 60.868-64.448 53.707-17.903-3.581-32.222-14.322-39.386-28.644-3.58-7.161-7.159-17.903-7.159-25.063 0-3.581 0-7.161 0-7.161 0-10.741-3.58-21.482-14.323-28.646-14.319-7.159-32.222 0-35.802 17.904 0 7.161 0 14.322 0 17.903 3.58 50.127 50.125 100.253 107.413 100.253zM381.324 263.876c-46.546 0-85.931 28.642-100.253 75.187-3.581 17.903 7.161 28.646 25.063 28.646h3.581c10.741 0 21.483-7.164 25.063-17.903 7.161-21.483 28.644-35.806 50.127-35.806 25.063 0 42.965 17.903 50.124 35.806 3.584 10.739 14.323 17.903 25.067 17.903h3.58c17.903 0 28.642-17.903 25.062-28.646-17.903-42.965-60.868-75.187-107.414-75.187zM381.316 661.333c-68.029 0-125.316-53.707-125.316-125.316 0-68.028 53.707-125.316 125.316-125.316 68.028 0 125.316 53.709 125.316 125.316 0 71.609-53.709 125.316-125.316 125.316zM374.156 464.41c-32.224 3.58-60.868 28.642-64.448 64.448-3.581 42.964 28.644 82.349 75.19 82.349 39.385 0 75.191-32.224 75.191-75.19-3.58-42.965-39.386-75.191-85.932-71.607zM642.679 510.959c-68.028 0-125.316-53.709-125.316-125.316 0-68.028 53.709-125.316 125.316-125.316 68.032 0 125.316 53.705 125.316 125.316 0 71.607-57.284 125.316-125.316 125.316zM714.291 389.222c0-42.965-35.806-78.771-82.351-71.607-32.226 3.58-57.289 28.642-64.448 60.864-7.164 53.709 39.386 96.674 93.090 82.351 35.806-10.739 53.709-39.381 53.709-71.607z" />
<glyph unicode="&#x10ff7e;" glyph-name="c98_wallet-1" d="M326.013 815.132c-110.020 0-181.145-75.292-181.145-191.901v-350.463c0-116.608 71.124-191.902 181.145-191.902h371.975c110.059 0 181.146 75.294 181.146 191.902v350.463c0 116.609-71.087 191.901-181.146 191.901h-371.975zM697.988 21.333h-371.975c-143.955 0-240.68 101.052-240.68 251.435v350.463c0 150.385 96.724 251.436 240.68 251.436h371.975c143.953 0 240.678-101.050 240.678-251.436v-350.463c0-150.383-96.725-251.435-240.678-251.435zM642.697 661.333c57.284 0 103.834-46.546 103.834-103.834 0-7.161 0-14.322 0-17.902-3.58-17.904-21.483-25.063-35.806-17.904-10.743 3.58-17.903 14.323-14.323 28.645 0 3.58 0 7.161 0 10.741 0 32.224-28.642 60.868-64.448 53.707-17.903-3.581-32.222-14.322-39.386-28.644-3.58-7.161-7.159-17.903-7.159-25.063 0-3.581 0-7.161 0-7.161 0-10.741-3.58-21.482-14.323-28.646-14.319-7.159-32.222 0-35.802 17.904 0 7.161 0 14.322 0 17.903 3.58 50.127 50.125 100.253 107.413 100.253zM381.324 263.876c-46.546 0-85.931 28.642-100.253 75.187-3.581 17.903 7.161 28.646 25.063 28.646h3.581c10.741 0 21.483-7.164 25.063-17.903 7.161-21.483 28.644-35.806 50.127-35.806 25.063 0 42.965 17.903 50.124 35.806 3.584 10.739 14.323 17.903 25.067 17.903h3.58c17.903 0 28.642-17.903 25.062-28.646-17.903-42.965-60.868-75.187-107.414-75.187zM381.316 661.333c-68.029 0-125.316-53.707-125.316-125.316 0-68.028 53.707-125.316 125.316-125.316 68.028 0 125.316 53.709 125.316 125.316 0 71.609-53.709 125.316-125.316 125.316zM374.156 464.41c-32.224 3.58-60.868 28.642-64.448 64.448-3.581 42.964 28.644 82.349 75.19 82.349 39.385 0 75.191-32.224 75.191-75.19-3.58-42.965-39.386-75.191-85.932-71.607zM642.679 510.959c-68.028 0-125.316-53.709-125.316-125.316 0-68.028 53.709-125.316 125.316-125.316 68.032 0 125.316 53.705 125.316 125.316 0 71.607-57.284 125.316-125.316 125.316zM714.291 389.222c0-42.965-35.806-78.771-82.351-71.607-32.226 3.58-57.289 28.642-64.448 60.864-7.164 53.709 39.386 96.674 93.090 82.351 35.806-10.739 53.709-39.381 53.709-71.607z" />
<glyph unicode="&#x10ff7f;" glyph-name="c98_wallet" d="M326.013 815.132c-110.020 0-181.145-75.292-181.145-191.901v-350.463c0-116.608 71.124-191.902 181.145-191.902h371.975c110.059 0 181.146 75.294 181.146 191.902v350.463c0 116.609-71.087 191.901-181.146 191.901h-371.975zM697.988 21.333h-371.975c-143.955 0-240.68 101.052-240.68 251.435v350.463c0 150.385 96.724 251.436 240.68 251.436h371.975c143.953 0 240.678-101.050 240.678-251.436v-350.463c0-150.383-96.725-251.435-240.678-251.435zM642.697 661.333c57.284 0 103.834-46.546 103.834-103.834 0-7.161 0-14.322 0-17.902-3.58-17.904-21.483-25.063-35.806-17.904-10.743 3.58-17.903 14.323-14.323 28.645 0 3.58 0 7.161 0 10.741 0 32.224-28.642 60.868-64.448 53.707-17.903-3.581-32.222-14.322-39.386-28.644-3.58-7.161-7.159-17.903-7.159-25.063 0-3.581 0-7.161 0-7.161 0-10.741-3.58-21.482-14.323-28.646-14.319-7.159-32.222 0-35.802 17.904 0 7.161 0 14.322 0 17.903 3.58 50.127 50.125 100.253 107.413 100.253zM381.324 263.876c-46.546 0-85.931 28.642-100.253 75.187-3.581 17.903 7.161 28.646 25.063 28.646h3.581c10.741 0 21.483-7.164 25.063-17.903 7.161-21.483 28.644-35.806 50.127-35.806 25.063 0 42.965 17.903 50.124 35.806 3.584 10.739 14.323 17.903 25.067 17.903h3.58c17.903 0 28.642-17.903 25.062-28.646-17.903-42.965-60.868-75.187-107.414-75.187zM381.316 661.333c-68.029 0-125.316-53.707-125.316-125.316 0-68.028 53.707-125.316 125.316-125.316 68.028 0 125.316 53.709 125.316 125.316 0 71.609-53.709 125.316-125.316 125.316zM374.156 464.41c-32.224 3.58-60.868 28.642-64.448 64.448-3.581 42.964 28.644 82.349 75.19 82.349 39.385 0 75.191-32.224 75.191-75.19-3.58-42.965-39.386-75.191-85.932-71.607zM642.679 510.959c-68.028 0-125.316-53.709-125.316-125.316 0-68.028 53.709-125.316 125.316-125.316 68.032 0 125.316 53.705 125.316 125.316 0 71.607-57.284 125.316-125.316 125.316zM714.291 389.222c0-42.965-35.806-78.771-82.351-71.607-32.226 3.58-57.289 28.642-64.448 60.864-7.164 53.709 39.386 96.674 93.090 82.351 35.806-10.739 53.709-39.381 53.709-71.607zM406.387 518.123c-3.581-10.739-14.322-17.903-25.064-17.903-14.322 0-25.063 10.743-25.063 25.067 0 10.739 7.161 21.481 17.903 25.061v10.741c0 3.581 3.58 7.161 7.161 7.161s7.161-3.581 7.161-7.161v-10.741c14.322-3.58 21.483-17.902 17.903-32.225zM617.63 403.554c3.58 10.743 14.323 17.903 25.062 17.903 14.323 0 25.067-10.739 25.067-25.062 0-10.739-7.164-21.483-17.903-25.062v-10.743c0-3.58-3.58-7.159-7.164-7.159-3.58 0-7.159 3.58-7.159 7.159v10.743c-14.323 3.58-21.483 17.903-17.903 32.222z" />
<glyph unicode="&#x10ff80;" glyph-name="web_revoke" d="M863.428 603.928c-9.31 18.618-27.925 27.927-46.545 18.618s-27.93-27.927-18.62-46.545c18.62-41.891 27.93-83.781 27.93-125.671 0-176.875-139.639-316.51-316.51-316.51-41.89 0-83.782 9.31-125.673 27.925-18.618 9.31-37.236 0-46.545-18.615-9.309-18.62 0-37.239 18.618-46.549 46.545-23.27 97.745-32.58 153.6-32.58 209.455 0 381.67 172.22 386.325 386.33 0 51.2-9.306 102.398-32.58 153.598zM681.89 510.835l-242.035-242.035 23.27-23.275c4.655-4.655 13.965-9.31 23.275-9.31s18.62 4.655 23.27 9.31l223.42 214.11c13.965 13.965 13.965 37.235 0 51.2s-37.235 13.965-51.2 0zM844.8 766.836c-13.965 13.964-37.235 13.964-51.2 0l-27.925-27.927c-69.82 60.509-158.255 93.091-251.349 93.091-214.107 0-386.325-172.218-386.325-381.675 0-93.090 32.582-181.525 93.091-251.345l-32.582-32.58c-13.964-13.965-13.964-37.235 0-51.2 4.655-4.655 13.964-9.31 23.273-9.31s18.618 4.655 23.273 9.31l605.091 605.091c13.965 13.964 13.965 32.582 4.655 46.545zM197.818 450.325c0 172.22 139.636 316.511 316.507 316.511 74.475 0 144.294-27.927 200.149-74.473l-297.893-302.544-23.273 18.615c-13.964 13.965-32.582 13.965-46.545 0-13.964-13.961-13.964-37.235 0-51.2l18.618-18.615-93.091-93.094c-46.545 55.855-74.473 125.675-74.473 204.8z" />
<glyph unicode="&#x10ff81;" glyph-name="web_warning" d="M511.586 506.569c17.673 0 32-14.327 32-32v-188.544c0-17.673-14.327-32-32-32s-32 14.327-32 32v188.544c0 17.673 14.327 32 32 32zM150.484 802.694c42.986 46.117 104.222 71.957 176.598 71.957h369.878c72.546 0 133.807-25.826 176.772-71.969 42.726-45.885 64.977-109.262 64.977-180.447v-348.503c0-71.185-22.251-134.562-64.981-180.446-42.974-46.144-104.247-71.97-176.811-71.97h-369.836c-72.547 0-133.8 25.826-176.756 71.974-42.715 45.888-64.951 109.261-64.951 180.442v348.503c0 71.22 22.356 134.591 65.109 180.459zM197.3 759.056c-29.876-32.052-47.925-78.889-47.925-136.821v-348.503c0-57.971 17.977-104.802 47.796-136.836 29.577-31.774 73.177-51.58 129.911-51.58h369.836c56.759 0 100.382 19.81 129.971 51.584 29.833 32.034 47.821 78.865 47.821 136.832v348.503c0 57.967-17.988 104.799-47.817 136.833-29.589 31.777-73.199 51.583-129.933 51.583h-369.878c-56.521 0-100.138-19.792-129.781-51.595z" />
<glyph unicode="&#x10ff82;" glyph-name="web_down_fill" d="M463.744 250.419c-2.475 2.411-13.056 11.516-21.76 19.994-54.741 49.711-144.341 179.396-171.691 247.27-4.395 10.308-13.696 36.37-14.293 50.295 0 13.343 3.072 26.062 9.301 38.199 8.704 15.13 22.4 27.267 38.571 33.917 11.221 4.281 44.8 10.932 45.397 10.932 36.736 6.65 96.427 10.308 162.389 10.308 62.848 0 120.107-3.658 157.397-9.103 0.597-0.623 42.325-7.274 56.619-14.548 26.112-13.342 42.325-39.404 42.325-67.294v-2.411c-0.64-18.164-16.853-56.362-17.451-56.362-27.392-64.218-112.597-190.908-169.216-241.826 0 0-14.549-14.34-23.637-20.574-13.056-9.728-29.227-14.549-45.397-14.549-18.048 0-34.859 5.444-48.555 15.753z" />
<glyph unicode="&#x10ff83;" glyph-name="web_up_fill" d="M560.256 645.58c2.475-2.411 13.056-11.513 21.76-19.993 54.741-49.712 144.341-179.396 171.691-247.27 4.395-10.308 13.696-36.369 14.293-50.295 0-13.342-3.072-26.061-9.301-38.199-8.704-15.13-22.4-27.264-38.571-33.916-11.221-4.279-44.8-10.931-45.397-10.931-36.736-6.652-96.427-10.308-162.389-10.308-62.848 0-120.107 3.657-157.397 9.101-0.597 0.627-42.325 7.275-56.619 14.549-26.112 13.342-42.325 39.403-42.325 67.294v2.411c0.64 18.163 16.853 56.363 17.451 56.363 27.392 64.218 112.597 190.909 169.216 241.827 0 0 14.549 14.34 23.637 20.575 13.056 9.726 29.227 14.548 45.397 14.548 18.048 0 34.859-5.445 48.555-15.753z" />
<glyph unicode="&#x10ff84;" glyph-name="web_more_horizontal" d="M96 448c0 64.606 52.727 117.333 117.333 117.333s117.333-52.727 117.333-117.333c0-64.606-52.727-117.333-117.333-117.333s-117.333 52.727-117.333 117.333zM213.333 501.333c-29.26 0-53.333-24.073-53.333-53.333s24.073-53.333 53.333-53.333c29.26 0 53.333 24.073 53.333 53.333s-24.073 53.333-53.333 53.333zM693.333 448c0 64.606 52.727 117.333 117.333 117.333s117.333-52.727 117.333-117.333c0-64.606-52.727-117.333-117.333-117.333s-117.333 52.727-117.333 117.333zM810.667 501.333c-29.261 0-53.333-24.073-53.333-53.333s24.073-53.333 53.333-53.333c29.261 0 53.333 24.073 53.333 53.333s-24.073 53.333-53.333 53.333zM394.667 448c0 64.606 52.727 117.333 117.333 117.333s117.333-52.727 117.333-117.333c0-64.606-52.727-117.333-117.333-117.333s-117.333 52.727-117.333 117.333zM512 501.333c-29.261 0-53.333-24.073-53.333-53.333s24.073-53.333 53.333-53.333c29.261 0 53.333 24.073 53.333 53.333s-24.073 53.333-53.333 53.333z" />
<glyph unicode="&#x10ff85;" glyph-name="web_multi_send" d="M870.396 857.6c-21.333 17.067-46.933 21.333-72.533 12.8l-605.866-213.333c-25.6-8.533-42.667-34.133-46.933-59.733-4.267-29.867 4.267-55.467 29.867-72.533l64-42.667-59.733-21.333c-29.867-8.533-46.933-29.867-51.2-59.733s8.533-55.467 34.133-68.267l149.333-89.6c8.533-4.267 17.067-12.8 21.333-17.067l115.2-132.267c12.8-21.333 29.867-29.867 51.2-29.867 8.533 0 12.8 0 21.333 4.267 25.6 8.533 46.933 29.867 51.2 59.733l12.8 68.267 64-72.533c12.8-17.067 34.133-21.333 55.467-21.333 8.533 0 12.8 0 21.333 4.267 25.6 8.533 46.933 29.867 51.2 55.467l115.2 627.2c4.267 25.6-4.267 51.2-21.333 68.267zM507.729 136.533c0-4.267-4.267-8.533-8.533-8.533s-4.267 0-8.533 4.267l-115.2 132.267c-8.533 12.8-21.333 21.333-34.133 29.867l-149.333 89.6c-4.267 4.267-4.267 4.267-4.267 8.533s0 4.267 4.267 8.533l106.667 38.4 85.333 25.6 183.466 64c0 0 0 0 4.267 0s4.267 0 4.267-4.267c0 0 4.267-4.267 4.267-8.533l-34.133-187.733-12.8-81.067-25.6-110.933zM712.529 166.4c0-4.267-4.267-4.267-8.533-8.533-4.267 0-4.267 0-8.533 4.267l-98.133 106.667 42.667 234.667c4.267 25.6-4.267 51.2-25.6 68.267s-46.933 21.333-72.533 12.8l-226.133-76.8-106.667 72.533c-4.267 4.267-4.267 4.267-4.267 8.533s0 4.267 4.267 8.533l605.866 213.333h4.267c4.267 0 4.267 0 4.267-4.267 0 0 4.267-4.267 4.267-8.533l-115.2-631.467z" />
<glyph unicode="&#x10ff86;" glyph-name="web_wallet_manager" d="M853.333 806.4c-42.667 42.667-102.4 68.267-170.667 68.267h-362.667c-72.533 0-132.267-25.6-170.667-68.267-42.667-46.933-64-106.667-64-179.2v-337.067c0-68.267 21.333-132.267 64-174.933 42.667-46.933 102.4-68.267 170.667-68.267h362.667c72.533 0 132.267 25.6 170.667 68.267 42.667 46.933 64 106.667 64 174.933v337.067c0 72.533-21.333 132.267-64 179.2zM853.333 349.867h-157.867c-46.933 0-81.067 38.4-81.067 81.067 0 46.933 38.4 81.067 81.067 81.067h140.8c4.267 0 8.533 0 12.8 4.267v-166.4zM806.4 157.867c-29.867-34.133-68.267-51.2-123.733-51.2h-362.667c-55.467 0-98.133 17.067-123.733 51.2-29.867 29.867-46.933 76.8-46.933 132.267v337.067c0 55.467 17.067 102.4 46.933 132.267s72.533 51.2 123.733 51.2h362.667c55.467 0 98.133-17.067 123.733-51.2 29.867-29.867 46.933-76.8 46.933-132.267v-55.467c-4.267 4.267-8.533 4.267-12.8 4.267h-140.8c-81.067 0-140.8-64-140.8-140.8 0-81.067 64-140.8 140.8-140.8h153.6c0-59.733-17.067-106.667-46.933-136.533zM716.8 469.333h-8.533c-12.8 0-25.6-12.8-25.6-29.867s12.8-29.867 25.6-29.867h8.533c12.8 0 25.6 12.8 25.6 29.867s-12.8 29.867-25.6 29.867z" />
<glyph unicode="&#x10ff87;" glyph-name="web_wallet" d="M725.333 465.067c0-17.067 12.8-34.133 34.133-34.133h8.533c17.067 0 34.133 12.8 34.133 34.133s-12.8 34.133-34.133 34.133h-12.8c-17.067-4.267-29.867-17.067-29.867-34.133zM699.733 866.133h-371.2c-140.8 0-256-115.2-256-256v-307.2c0-140.8 115.2-256 256-256h366.933c140.8 0 256 115.2 256 256v307.2c4.267 140.8-110.933 256-251.733 256zM891.733 379.733h-140.8c-46.933 0-81.067 38.4-81.067 81.067 0 46.933 38.4 81.067 81.067 81.067h140.8v-162.133zM699.733 110.933h-371.2c-106.667 0-192 85.333-192 192v307.2c0 106.667 85.333 192 192 192h366.933c106.667 0 192-85.333 192-192v0h-140.8c-81.067 0-145.067-64-145.067-145.067s64-145.067 145.067-145.067h140.8v-12.8c4.267-110.933-81.067-196.267-187.733-196.267zM529.067 669.867h-230.4c-17.067 0-34.133-12.8-34.133-34.133s17.067-29.867 34.133-29.867h230.4c17.067 0 34.133 12.8 34.133 34.133s-17.067 29.867-34.133 29.867z" />
<glyph unicode="&#x10ff88;" glyph-name="web_whale" d="M857.6 776.533c-17.067 0-29.867-8.533-34.133-25.6-4.267-21.333-21.333-38.4-46.933-38.4h-106.667c-25.6 0-42.667 17.067-46.933 38.4-4.267 17.067-17.067 29.867-34.133 25.6-17.067 0-29.867-17.067-29.867-29.867v-119.467c0-55.467 38.4-98.133 89.6-110.933-29.867-29.867-72.533-51.2-123.733-51.2 0 0 0 0 0 0-8.533 0-17.067 4.267-21.333 8.533 0 0-4.267 0-4.267 4.267-4.267 0-4.267 8.533-4.267 17.067 0 51.2-42.667 93.867-93.867 93.867h-183.467c-89.6 0-162.133-72.533-162.133-162.133v-187.733c0-64 51.2-110.933 110.933-110.933h477.867c64 0 110.933 51.2 110.933 110.933v268.8h21.333c59.733 0 110.933 51.2 106.667 110.933v128c0 17.067-12.8 29.867-25.6 29.867zM674.133 580.267c-25.6 0-46.933 21.333-46.933 46.933v34.133c12.8-4.267 29.867-8.533 42.667-8.533h21.333v-21.333c0 0 0 0 0 0 0-17.067-4.267-34.133-8.533-46.933h-8.533zM119.467 247.467v153.6c59.733-8.533 119.467-38.4 157.867-81.067 0 0 0 0 0 0 29.867-29.867 68.267-59.733 110.933-76.8l98.133-42.667h-320c-29.867 0-46.933 21.333-46.933 46.933zM691.2 247.467c0-21.333-17.067-42.667-38.4-46.933l-238.933 98.133c-29.867 12.8-59.733 38.4-89.6 64-51.2 59.733-128 93.867-204.8 102.4 17.067 38.4 51.2 68.267 98.133 68.267h183.467c17.067 0 29.867-12.8 29.867-29.867 0-25.6 8.533-51.2 29.867-68.267 17.067-17.067 42.667-25.6 64-25.6 68.267 0 123.733 25.6 166.4 68.267v-230.4zM780.8 580.267h-21.333v46.933c0 0 0 0 0 0v25.6h17.067c17.067 0 29.867 4.267 42.667 8.533v-34.133c0 0 0 0 0-4.267 4.267-21.333-17.067-42.667-38.4-42.667zM345.6 460.8c-29.867 0-29.867-46.933 0-46.933 34.133-4.267 34.133 46.933 0 46.933z" />
<glyph unicode="&#x10ff89;" glyph-name="web_token_issuer" d="M853.333 448c-17.067 0-29.867-12.8-29.867-29.867 0-200.533-162.133-362.667-362.667-362.667s-362.667 162.133-362.667 362.667 162.133 362.667 362.667 362.667c17.067 0 29.867 12.8 29.867 29.867s-12.8 29.867-29.867 29.867c-230.4 0-418.133-187.733-418.133-422.4 0-230.4 187.733-418.133 418.133-418.133s418.133 187.733 418.133 418.133c4.267 17.067-8.533 29.867-25.6 29.867zM443.733 614.4v-38.4c-85.333-17.067-149.333-89.6-149.333-174.933s64-162.133 149.333-174.933v-38.4c0-17.067 12.8-34.133 34.133-34.133s34.133 12.8 34.133 34.133v34.133c34.133 4.267 68.267 21.333 93.867 51.2 12.8 12.8 12.8 34.133 0 46.933s-34.133 12.8-46.933 0c-21.333-21.333-51.2-34.133-81.067-34.133-64 0-115.2 51.2-115.2 115.2s51.2 115.2 115.2 115.2c29.867 0 59.733-12.8 81.067-34.133 12.8-12.8 34.133-12.8 46.933 0s12.8 34.133 0 46.933c-25.6 25.6-59.733 42.667-93.867 51.2v34.133c0 17.067-12.8 34.133-34.133 34.133s-34.133-17.067-34.133-34.133zM861.867 755.2h-85.333v85.333c0 17.067-12.8 34.133-34.133 34.133s-34.133-12.8-34.133-34.133v-85.333h-85.333c-17.067 0-34.133-12.8-34.133-34.133s12.8-34.133 34.133-34.133h85.333v-85.333c0-17.067 12.8-34.133 34.133-34.133s34.133 12.8 34.133 34.133v85.333h85.333c17.067 0 34.133 12.8 34.133 34.133s-12.8 34.133-34.133 34.133z" />
<glyph unicode="&#x10ff8a;" glyph-name="web_tokens" d="M512 908.8c-256 0-460.8-209.067-460.8-460.8s204.8-460.8 460.8-460.8c251.733 0 460.8 204.8 460.8 460.8s-209.067 460.8-460.8 460.8zM512 55.467c-217.6 0-392.533 179.2-392.533 392.533 0 217.6 174.933 392.533 392.533 392.533s392.533-179.2 392.533-392.533-174.933-392.533-392.533-392.533zM507.733 618.667c46.933 0 89.6-17.067 123.733-46.933 12.8-12.8 34.133-12.8 46.933 0s12.8 34.133 0 46.933c-34.133 34.133-81.067 59.733-132.267 64v85.333c0 17.067-12.8 34.133-34.133 34.133s-34.133-12.8-34.133-34.133v-85.333c-115.2-12.8-209.067-110.933-209.067-234.667s93.867-221.867 209.067-234.667v-89.6c0-17.067 12.8-34.133 34.133-34.133s34.133 12.8 34.133 34.133v89.6c51.2 8.533 93.867 29.867 132.267 64 12.8 12.8 12.8 34.133 0 46.933s-34.133 12.8-46.933 0c-34.133-29.867-76.8-46.933-123.733-46.933-93.867 0-174.933 76.8-174.933 170.667 0 98.133 76.8 170.667 174.933 170.667z" />
<glyph unicode="&#x10ff8b;" glyph-name="web_transfer" d="M925.867 661.333c0 17.067-12.8 34.133-34.133 34.133v0 0 0h-366.933c-12.8 0-25.6-8.533-29.867-21.333s-4.267-25.6 8.533-34.133l93.867-93.867-247.467-247.467c0 0-4.267-4.267-4.267-4.267s-4.267-4.267-4.267-4.267c0-12.8 4.267-29.867 12.8-38.4 0 0 0 0 0 0l64-59.733h-256v256l64-64c12.8-12.8 34.133-12.8 46.933 0l136.533 136.533c12.8 12.8 12.8 34.133 0 46.933-21.333 8.533-38.4 8.533-51.2-4.267l-110.933-110.933-98.133 93.867c-8.533 8.533-21.333 12.8-34.133 8.533s-21.333-17.067-21.333-29.867v-366.933c0-17.067 12.8-34.133 34.133-34.133h366.933c12.8 0 25.6 8.533 29.867 21.333s4.267 25.6-8.533 34.133l-93.867 93.867 247.467 247.467c0 0 4.267 4.267 4.267 4.267s4.267 4.267 4.267 4.267c4.267 12.8 4.267 25.6-8.533 34.133 0 0 0 0 0 0l-64 64h256v-256l-64 64c-4.267 4.267-12.8 8.533-21.333 8.533s-17.067-4.267-21.333-8.533l-136.533-136.533c-12.8-12.8-12.8-34.133 0-46.933s34.133-12.8 46.933 0l110.933 110.933 93.867-93.867c8.533-8.533 21.333-12.8 34.133-8.533s21.333 17.067 21.333 29.867v371.2c0 0 0 0 0 0z" />
<glyph unicode="&#x10ff8c;" glyph-name="web_upload" d="M494.933 277.333c0 0 0 0 0 0 4.267-4.267 8.533-4.267 8.533-8.533 4.267 0 8.533-4.267 12.8-4.267s8.533 0 12.8 4.267c4.267 0 8.533 4.267 8.533 8.533 0 0 0 0 0 0l123.733 123.733c12.8 12.8 12.8 34.133 0 46.933s-34.133 12.8-46.933 0l-68.267-68.267v435.2c0 17.067-12.8 34.133-34.133 34.133s-25.6-17.067-25.6-34.133v-435.2l-72.533 68.267c-12.8 12.8-34.133 12.8-46.933 0s-12.8-34.133 0-46.933l128-123.733zM755.2 644.267h-38.4c-17.067 0-34.133-12.8-34.133-34.133s12.8-34.133 34.133-34.133h38.4c68.267 0 123.733-55.467 123.733-123.733v-209.067c0-68.267-55.467-123.733-123.733-123.733h-473.6c-68.267 0-123.733 55.467-123.733 123.733v209.067c0 68.267 55.467 123.733 123.733 123.733h38.4c17.067 0 34.133 12.8 34.133 34.133s-17.067 34.133-34.133 34.133h-42.667c-102.4 0-187.733-85.333-187.733-187.733v-209.067c0-102.4 85.333-187.733 187.733-187.733h473.6c102.4 0 187.733 85.333 187.733 187.733v209.067c4.267 102.4-81.067 187.733-183.467 187.733z" />
<glyph unicode="&#x10ff8d;" glyph-name="web_security_setting" d="M682.667 610.133h-341.333c0 0-4.267 0-4.267 0v59.733c4.267 76.8 51.2 140.8 119.467 162.133 93.867 29.867 192-17.067 221.867-106.667 4.267-17.067 25.6-25.6 38.4-21.333s25.6 25.6 21.333 38.4c-42.667 123.733-179.2 187.733-302.933 145.067-93.867-25.6-157.867-115.2-162.133-213.333 0 0 0 0 0 0v-76.8c-76.8-29.867-136.533-102.4-136.533-192v-187.733c0-110.933 89.6-204.8 204.8-204.8h341.333c110.933 0 204.8 89.6 204.8 196.267v196.267c0 110.933-93.867 204.8-204.8 204.8zM819.2 213.333c0-72.533-59.733-132.267-136.533-132.267h-341.333c-76.8 0-136.533 64-136.533 136.533v187.733c0 68.267 46.933 123.733 110.933 136.533 0 0 0 0 0 0 8.533 0 17.067 4.267 25.6 4.267h341.333c76.8 0 136.533-64 136.533-136.533v-196.267z" />
<glyph unicode="&#x10ff8e;" glyph-name="web_self" d="M413.867 435.2v0 0 0c119.467 0 217.6 98.133 217.6 213.333s-98.133 213.333-213.333 213.333c-119.467 0-213.333-98.133-213.333-213.333-8.533-119.467 89.6-213.333 209.067-213.333zM264.533 648.533c0 85.333 68.267 149.333 149.333 149.333s149.333-68.267 149.333-149.333c0-85.333-68.267-149.333-149.333-149.333v0 0c-85.333 0-153.6 68.267-149.333 149.333v0zM413.867 435.2v0 0zM802.133 682.667v0 0h-21.333l42.667 42.667c12.8 12.8 12.8 34.133 0 46.933s-34.133 12.8-46.933 0l-93.867-102.4c0 0 0 0 0 0s0-4.267-4.267-4.267c0 0 0-4.267-4.267-4.267 0 0 0 0 0 0s0 0 0-4.267c0 0 0-4.267 0-4.267s0-4.267 0-4.267 0-4.267 0-4.267 0-4.267 0-4.267c0 0 0 0 0-4.267 0 0 0 0 0 0s0-4.267 4.267-4.267c0 0 0-4.267 4.267-4.267 0 0 0 0 0 0l98.133-98.133c12.8-12.8 34.133-12.8 46.933 0s12.8 34.133 0 46.933l-42.667 42.667h21.333c0 0 0 0 0 0 34.133 0 59.733-25.6 59.733-59.733v-247.467c0-34.133-25.6-59.733-59.733-59.733h-81.067c-4.267 17.067-12.8 34.133-25.6 46.933-21.333 21.333-46.933 34.133-76.8 42.667-55.467 21.333-132.267 25.6-213.333 25.6-76.8 0-153.6-4.267-209.067-25.6-29.867-8.533-55.467-25.6-76.8-42.667-21.333-21.333-29.867-46.933-29.867-81.067 0-29.867 12.8-59.733 29.867-81.067 21.333-21.333 46.933-34.133 76.8-42.667 55.467-21.333 132.267-25.6 213.333-25.6 76.8 0 153.6 4.267 209.067 25.6 29.867 8.533 55.467 25.6 76.8 42.667 12.8 12.8 21.333 29.867 25.6 46.933h76.8c68.267 0 123.733 55.467 123.733 123.733v247.467c4.267 68.267-55.467 128-123.733 128zM652.8 179.2c-8.533-8.533-25.6-21.333-51.2-25.6-46.933-17.067-115.2-21.333-192-21.333s-145.067 4.267-192 21.333c-21.333 8.533-38.4 17.067-51.2 29.867-8.533 8.533-12.8 21.333-12.8 34.133s4.267 25.6 12.8 34.133c8.533 8.533 25.6 21.333 51.2 25.6 46.933 17.067 115.2 21.333 192 21.333s145.067-4.267 192-21.333c21.333-8.533 38.4-17.067 51.2-29.867 8.533-8.533 12.8-21.333 12.8-34.133 4.267-12.8-4.267-25.6-12.8-34.133z" />
<glyph unicode="&#x10ff8f;" glyph-name="web_show" d="M512 550.4c-55.467 0-102.4-46.933-102.4-102.4s46.933-102.4 102.4-102.4c55.467 0 102.4 46.933 102.4 102.4s-46.933 102.4-102.4 102.4zM345.6 443.733c0 93.867 76.8 166.4 166.4 166.4 93.867 0 166.4-76.8 166.4-166.4 0-93.867-76.8-166.4-166.4-166.4-93.867 0-166.4 76.8-166.4 166.4zM512 102.4c0 0 0 0 0 0s0 0 0 0c-174.933 0-337.067 123.733-422.4 332.8-4.267 8.533-4.267 17.067 0 25.6 85.333 204.8 247.467 328.533 422.4 328.533 0 0 0 0 0 0s0 0 0 0c174.933 0 337.067-123.733 422.4-332.8 4.267-8.533 4.267-17.067 0-25.6-85.333-204.8-247.467-328.533-422.4-328.533 0 0 0 0 0 0zM153.6 443.733c81.067-174.933 213.333-281.6 358.4-281.6s281.6 102.4 358.4 281.6c-81.067 174.933-213.333 281.6-358.4 281.6s-281.6-102.4-358.4-281.6z" />
<glyph unicode="&#x10ff90;" glyph-name="web_sort_down" d="M115.2 652.8h209.067c17.067 0 29.867 8.533 29.867 21.333s-12.8 25.6-29.867 25.6h-209.067c-17.067 0-29.867-8.533-29.867-25.6 0-12.8 12.8-21.333 29.867-21.333zM85.333 448c0-12.8 12.8-25.6 29.867-25.6h379.733c17.067 0 29.867 12.8 29.867 25.6s-12.8 25.6-29.867 25.6h-379.733c-17.067-4.267-29.867-12.8-29.867-25.6zM652.8 243.2h-537.6c-17.067 0-29.867-12.8-29.867-25.6s12.8-25.6 29.867-25.6h537.6c17.067 0 29.867 12.8 29.867 25.6s-12.8 25.6-29.867 25.6zM947.2 499.2c-8.533 8.533-25.6 8.533-34.133 0l-89.6-89.6v268.8c-4.267 12.8-12.8 25.6-25.6 25.6s-25.6-12.8-25.6-25.6v-268.8l-89.6 89.6c-8.533 8.533-25.6 8.533-34.133 0s-8.533-25.6 0-34.133l132.267-132.267c0 0 0 0 0 0 4.267-4.267 4.267-4.267 8.533-4.267s4.267 0 8.533 0 8.533 0 8.533 0 4.267 4.267 8.533 4.267c0 0 0 0 0 0l132.267 132.267c8.533 12.8 8.533 25.6 0 34.133z" />
<glyph unicode="&#x10ff91;" glyph-name="web_sort_up" d="M324.267 243.2h-209.067c-17.067 0-29.867-8.533-29.867-21.333s12.8-25.6 29.867-25.6h209.067c17.067 0 29.867 12.8 29.867 25.6s-12.8 21.333-29.867 21.333zM115.2 652.8h537.6c17.067 0 29.867 12.8 29.867 25.6s-12.8 25.6-29.867 25.6h-537.6c-17.067 0-29.867-12.8-29.867-25.6s12.8-25.6 29.867-25.6zM494.933 473.6h-379.733c-17.067 0-29.867-8.533-29.867-25.6s12.8-25.6 29.867-25.6h379.733c17.067 0 29.867 12.8 29.867 25.6s-12.8 25.6-29.867 25.6zM947.2 563.2l-132.267 132.267c-4.267 4.267-12.8 8.533-17.067 8.533-8.533 0-12.8-4.267-17.067-8.533l-132.267-132.267c-8.533-8.533-8.533-25.6 0-34.133s25.6-8.533 34.133 0l89.6 89.6v-268.8c0-12.8 12.8-25.6 25.6-25.6s25.6 12.8 25.6 25.6v268.8l89.6-89.6c8.533-8.533 25.6-8.533 34.133 0s8.533 25.6 0 34.133z" />
<glyph unicode="&#x10ff92;" glyph-name="web_remove" d="M768 384h-512c-17.067 0-34.133 12.8-34.133 34.133s17.067 29.867 34.133 29.867h512c17.067 0 34.133-12.8 34.133-34.133s-17.067-29.867-34.133-29.867z" />
<glyph unicode="&#x10ff93;" glyph-name="web_scan" d="M896 430.933h-204.8v55.467c4.267 68.267-51.2 123.733-119.467 123.733h-119.467c-64 0-119.467-55.467-119.467-123.733v-55.467h-204.8c-17.067 0-34.133-12.8-34.133-34.133s12.8-34.133 34.133-34.133h38.4v-132.267c0-81.067 68.267-153.6 153.6-153.6h64c17.067 0 34.133 12.8 34.133 34.133s-21.333 38.4-38.4 38.4h-64c-46.933 0-89.6 38.4-89.6 89.6v132.267h102.4c-4.267-68.267 51.2-123.733 119.467-123.733h119.467c64 0 119.467 55.467 119.467 123.733v0h106.667v-132.267c0-46.933-38.4-89.6-89.6-89.6h-59.733c-17.067 0-34.133-12.8-34.133-34.133s12.8-34.133 34.133-34.133h59.733c81.067 0 153.6 68.267 153.6 153.6v132.267h38.4c17.067 0 34.133 12.8 34.133 34.133s-17.067 29.867-34.133 29.867zM396.8 486.4c0 34.133 25.6 59.733 55.467 59.733h119.467c34.133 0 59.733-25.6 55.467-55.467 0 0 0 0 0-4.267v-55.467h-230.4v55.467zM627.2 366.933c0-34.133-25.6-59.733-55.467-59.733h-119.467c-34.133 0-59.733 25.6-55.467 55.467 0 0 0 0 0 4.267v0h230.4zM652.8 712.533h59.733c46.933 0 89.6-38.4 89.6-89.6v-72.533c0-17.067 12.8-29.867 34.133-29.867 17.067 0 34.133 12.8 34.133 29.867v76.8c0 81.067-68.267 153.6-153.6 153.6h-59.733c-17.067 0-34.133-12.8-34.133-34.133s12.8-34.133 29.867-34.133zM196.267 520.533c17.067 0 34.133 12.8 34.133 29.867v76.8c0 46.933 38.4 89.6 89.6 89.6h64c17.067 0 34.133 12.8 34.133 34.133s-21.333 29.867-38.4 29.867h-64c-81.067 0-153.6-68.267-153.6-153.6v-72.533c4.267-17.067 17.067-34.133 34.133-34.133z" />
<glyph unicode="&#x10ff94;" glyph-name="web_search_left" d="M832 153.6l-110.933 110.933c55.467 64 89.6 145.067 89.6 238.933 0 196.267-162.133 358.4-358.4 358.4s-358.4-157.867-358.4-358.4 162.133-358.4 358.4-358.4c85.333 0 157.867 29.867 221.867 76.8l110.933-110.933c12.8-12.8 34.133-12.8 46.933 0s12.8 29.867 0 42.667zM162.133 503.467c0 162.133 132.267 294.4 294.4 294.4s294.4-132.267 294.4-294.4-132.267-294.4-294.4-294.4-294.4 132.267-294.4 294.4z" />
<glyph unicode="&#x10ff95;" glyph-name="web_search_right" d="M567.467 866.133c-196.267 0-358.4-162.133-358.4-358.4 0-85.333 29.867-157.867 76.8-221.867l-110.933-110.933c-12.8-12.8-12.8-34.133 0-46.933s34.133-12.8 46.933 0l110.933 110.933c64-55.467 145.067-93.867 238.933-93.867 196.267 0 358.4 162.133 358.4 358.4s-162.133 362.667-362.667 362.667zM567.467 209.067c-162.133 0-294.4 132.267-294.4 294.4s132.267 294.4 294.4 294.4c162.133 0 294.4-132.267 294.4-294.4s-128-294.4-294.4-294.4z" />
<glyph unicode="&#x10ff96;" glyph-name="web_remove_liquidity" d="M512 4.267c-162.133 0-345.6 46.933-371.2 145.067 0 8.533-4.267 12.8-4.267 21.333v273.067c0 110.933 192 166.4 375.467 166.4 17.067 0 34.133-12.8 34.133-34.133s-17.067-29.867-34.133-29.867c-187.733 0-311.467-59.733-311.467-102.4 0 0 0 0 0 0v0c0 0 0 0 0 0 0-42.667 119.467-102.4 311.467-102.4 8.533 0 17.067 0 21.333 0 149.333 4.267 251.733 46.933 277.333 85.333 4.267 4.267 4.267 8.533 4.267 8.533 0 4.267 0 4.267 0 8.533 0 0 0 0 0 0 0 17.067 12.8 34.133 34.133 34.133s34.133-12.8 34.133-34.133v-273.067c0-8.533 0-12.8-4.267-21.333-21.333-98.133-204.8-145.067-366.933-145.067zM204.8 345.6v-174.933c0 0 0-4.267 0-4.267 8.533-42.667 123.733-98.133 307.2-98.133s298.667 55.467 307.2 98.133c0 0 0 4.267 0 4.267v174.933c-64-42.667-166.4-64-264.533-68.267-17.067 0-34.133 0-46.933 0-110.933 0-234.667 21.333-302.933 68.267zM716.8 477.867c-17.067 0-34.133 12.8-34.133 34.133v243.2l-34.133-34.133c-12.8-12.8-34.133-12.8-46.933 0s-12.8 34.133 0 46.933l89.6 89.6c4.267 4.267 8.533 4.267 8.533 8.533 8.533 4.267 17.067 4.267 25.6 0 4.267 0 8.533-4.267 8.533-8.533l89.6-89.6c12.8-12.8 12.8-34.133 0-46.933s-34.133-12.8-46.933 0l-38.4 38.4v-243.2c12.8-21.333-4.267-38.4-21.333-38.4z" />
<glyph unicode="&#x10ff97;" glyph-name="web_multi_sig" d="M652.8 456.533c-17.067 0-34.133 12.8-34.133 34.133s12.8 34.133 34.133 34.133c46.933 0 85.333 38.4 85.333 85.333s-38.4 85.333-85.333 85.333c-17.067 0-34.133 12.8-34.133 34.133s12.8 34.133 34.133 34.133c81.067 0 149.333-68.267 149.333-149.333 0-93.867-64-157.867-149.333-157.867zM768 192c-12.8 0-29.867 8.533-29.867 25.6-4.267 17.067 8.533 34.133 25.6 38.4 38.4 8.533 46.933 17.067 46.933 21.333 4.267 8.533 4.267 12.8 0 21.333s-17.067 17.067-46.933 21.333c-17.067 4.267-34.133 8.533-55.467 8.533-17.067 0-29.867 17.067-29.867 34.133s17.067 29.867 34.133 29.867c21.333 0 42.667-4.267 64-8.533 46.933-8.533 76.8-29.867 89.6-55.467s12.8-51.2 0-76.8c-12.8-29.867-42.667-46.933-89.6-55.467-4.267-4.267-8.533-4.267-8.533-4.267zM426.667 102.4c-68.267 0-277.333 0-277.333 132.267s209.067 132.267 277.333 132.267 277.333 0 277.333-132.267c-4.267-132.267-209.067-132.267-277.333-132.267zM426.667 302.933c-98.133 0-213.333-12.8-213.333-68.267s115.2-68.267 213.333-68.267c98.133 0 213.333 12.8 213.333 68.267-4.267 55.467-115.2 68.267-213.333 68.267zM426.667 413.867c-102.4 0-187.733 85.333-187.733 187.733 0 106.667 85.333 187.733 187.733 187.733s187.733-85.333 187.733-187.733c0-102.4-85.333-187.733-187.733-187.733zM426.667 725.333c-68.267 0-123.733-55.467-123.733-123.733s55.467-123.733 123.733-123.733c68.267 0 123.733 55.467 123.733 123.733s-55.467 123.733-123.733 123.733zM405.333 524.8c-8.533 0-17.067 4.267-21.333 8.533l-38.4 34.133c-12.8 12.8-12.8 34.133 0 46.933s34.133 12.8 46.933 0l12.8-12.8 46.933 46.933c12.8 12.8 34.133 12.8 46.933 0s12.8-34.133 0-46.933l-72.533-68.267c-4.267-8.533-12.8-8.533-21.333-8.533z" />
<glyph unicode="&#x10ff98;" glyph-name="web_network" d="M780.8 285.867c-8.533 0-12.8 0-21.333-4.267l-187.733 354.133c29.867 29.867 51.2 68.267 51.2 115.2 0 85.333-68.267 153.6-153.6 153.6s-157.867-64-157.867-153.6c0-55.467 25.6-98.133 64-128l-51.2-110.933c-17.067 4.267-38.4 8.533-55.467 8.533-119.467 0-217.6-98.133-217.6-217.6s98.133-217.6 217.6-217.6c89.6 0 166.4 55.467 200.533 136.533l204.8-51.2c4.267-55.467 46.933-98.133 102.4-98.133 59.733 0 106.667 46.933 106.667 106.667s-46.933 106.667-102.4 106.667zM465.067 840.533c51.2 0 89.6-38.4 89.6-89.6 0-29.867-17.067-55.467-38.4-72.533 0 0-4.267 0-4.267 0-4.267 0-4.267-4.267-8.533-4.267-12.8-8.533-25.6-12.8-38.4-12.8-8.533 0-17.067 0-25.6 4.267 0 0-4.267 4.267-4.267 4.267-4.267 0-8.533 4.267-12.8 4.267-29.867 17.067-46.933 42.667-46.933 81.067 0 46.933 38.4 85.333 89.6 85.333zM268.8 153.6c-85.333 0-153.6 68.267-153.6 153.6s68.267 153.6 153.6 153.6c21.333 0 42.667-4.267 59.733-12.8 0 0 0 0 0 0s0 0 0 0c55.467-21.333 93.867-76.8 93.867-140.8 0-8.533 0-17.067-4.267-25.6 0-4.267-4.267-4.267-4.267-8.533s0-4.267 0-8.533c-17.067-64-76.8-110.933-145.067-110.933zM384 490.667l51.2 110.933c8.533 0 21.333-4.267 29.867-4.267 17.067 0 34.133 4.267 46.933 8.533l187.733-354.133c-4.267-4.267-8.533-8.533-12.8-12.8l-209.067 51.2c0 4.267 0 12.8 0 17.067 8.533 76.8-34.133 145.067-93.867 183.467zM780.8 140.8c-21.333 0-42.667 17.067-42.667 42.667s17.067 42.667 42.667 42.667c21.333 0 42.667-17.067 42.667-42.667s-21.333-42.667-42.667-42.667z" />
<glyph unicode="&#x10ff99;" glyph-name="web_paste" d="M669.867 298.667h-307.2c-17.067 0-34.133-12.8-34.133-34.133s17.067-29.867 34.133-29.867h307.2c17.067 0 34.133 12.8 34.133 34.133s-17.067 29.867-34.133 29.867zM678.4 874.667h-328.533c-136.533 0-221.867-89.6-221.867-230.4v-392.533c0-136.533 89.6-230.4 226.133-230.4h328.533c136.533 0 221.867 89.6 221.867 230.4v392.533c0 136.533-89.6 230.4-226.133 230.4zM648.533 810.667c0-38.4-34.133-72.533-76.8-72.533h-128c-42.667 0-72.533 34.133-76.8 72.533h281.6zM840.533 251.733c0-102.4-59.733-162.133-157.867-166.4h-328.533c-102.4 0-162.133 59.733-162.133 166.4v392.533c0 85.333 42.667 145.067 119.467 157.867 4.267-72.533 64-132.267 140.8-132.267h128c76.8 0 136.533 59.733 140.8 132.267 81.067-12.8 123.733-72.533 123.733-162.133v-388.267z" />
<glyph unicode="&#x10ff9a;" glyph-name="web_pie_chart" d="M972.8 448c0 0-4.267 0 0 0-4.267 256-204.8 460.8-460.8 460.8s-460.8-209.067-460.8-460.8c0-256 209.067-456.533 456.533-456.533 260.267 0 460.8 204.8 465.067 456.533-4.267 0 0 0 0 0zM853.333 247.467l-238.933 166.4h294.4c-8.533-59.733-25.6-115.2-55.467-166.4zM904.533 482.133h-358.4v358.4c196.267-17.067 345.6-166.4 358.4-358.4zM512 55.467c-217.6 0-392.533 174.933-392.533 392.533 0 209.067 157.867 379.733 366.933 392.533v-396.8c0-8.533 4.267-21.333 12.8-25.6l320-221.867c-72.533-85.333-183.467-140.8-307.2-140.8z" />
<glyph unicode="&#x10ff9b;" glyph-name="web_piechart" d="M938.667 448c0 0 0 0 0 0 0 234.667-183.467 422.4-422.4 422.4 0 0 0 0 0 0s0 0 0 0 0 0-4.267 0c-238.933 0-426.667-192-426.667-426.667 0-238.933 192-426.667 426.667-426.667 238.933 4.267 426.667 196.267 426.667 430.933 0 0 0 0 0 0s0 0 0 0zM827.733 264.533l-204.8 149.333h251.733c-4.267-51.2-21.333-102.4-46.933-149.333zM874.667 477.867h-324.267v328.533c174.933-17.067 307.2-153.6 324.267-328.533zM512 85.333c-200.533 0-362.667 157.867-362.667 362.667 0 187.733 145.067 345.6 337.067 358.4v-358.4c0 0 0 0 0 0s0 0 0-4.267c0-17.067 12.8-25.6 25.6-29.867l281.6-200.533c-68.267-76.8-170.667-128-281.6-128z" />
<glyph unicode="&#x10ff9c;" glyph-name="web_margin_volume" d="M366.933 823.467h-115.2c-59.733 0-110.933-55.467-110.933-119.467v-110.933c-4.267-68.267 51.2-119.467 115.2-119.467h110.933c64 0 115.2 51.2 115.2 115.2v115.2c0 64-51.2 119.467-115.2 119.467zM413.867 704v-110.933c0-29.867-25.6-51.2-51.2-51.2h-110.933c-29.867 0-51.2 21.333-51.2 51.2 0 0 0 0 0 4.267v106.667c0 29.867 25.6 51.2 51.2 51.2h110.933c34.133 0 55.467-21.333 51.2-51.2 0 0 0 0 0 0zM366.933 422.4h-115.2c0 0 0 0-4.267 0-59.733-4.267-110.933-55.467-110.933-115.2v-115.2c-4.267-68.267 51.2-119.467 115.2-119.467h110.933c64 0 115.2 51.2 115.2 115.2v110.933c4.267 72.533-46.933 123.733-110.933 123.733zM413.867 302.933v-110.933c0-29.867-25.6-51.2-51.2-51.2h-110.933c-29.867 0-51.2 21.333-51.2 51.2 0 0 0 0 0 4.267v110.933c0 25.6 21.333 51.2 51.2 51.2h110.933c34.133 0 55.467-21.333 51.2-55.467 0 4.267 0 4.267 0 0zM772.267 422.4h-110.933c0 0 0 0-4.267 0-59.733-4.267-115.2-55.467-110.933-119.467v-110.933c-4.267-68.267 51.2-119.467 115.2-119.467h110.933c64 0 115.2 51.2 115.2 115.2v110.933c0 72.533-51.2 123.733-115.2 123.733zM819.2 302.933v-110.933c0-29.867-25.6-51.2-51.2-51.2h-110.933c-29.867 0-51.2 21.333-51.2 51.2 0 0 0 0 0 4.267v110.933c0 0 0 0 0 4.267 0 21.333 17.067 46.933 51.2 51.2h110.933c34.133-4.267 55.467-25.6 51.2-59.733 0 4.267 0 4.267 0 0zM597.333 486.4l226.133 226.133v-119.467c0-17.067 12.8-34.133 34.133-34.133 17.067 0 34.133 12.8 34.133 34.133v196.267c0 4.267 0 8.533-4.267 12.8 0 4.267-4.267 4.267-4.267 8.533 0 0 0 0 0 0s0 0 0 0c-4.267 4.267-4.267 4.267-8.533 4.267s-8.533 4.267-12.8 4.267c0 0 0 0 0 0h-196.267c-17.067 0-34.133-12.8-34.133-34.133s12.8-34.133 34.133-34.133h115.2l-230.4-217.6c-12.8-12.8-12.8-34.133 0-46.933s34.133-12.8 46.933 0z" />
<glyph unicode="&#x10ff9d;" glyph-name="web_market_matric" d="M490.667 618.667l102.4-98.133c0 0 0 0 0 0s0 0 0 0 4.267-4.267 4.267-4.267c0 0 4.267-4.267 4.267-4.267s4.267 0 4.267 0 4.267 0 8.533 0c0 0 4.267 0 4.267 0 4.267 0 4.267 0 8.533 0 0 0 0 0 4.267 0s4.267 4.267 8.533 4.267c0 0 0 0 0 0s0 0 0 0l59.733 64c17.067-12.8 34.133-29.867 46.933-42.667s21.333-17.067 29.867-21.333c0 0 0 0 0 0 25.6-12.8 46.933 0 55.467 8.533 4.267 4.267 4.267 4.267 4.267 8.533l12.8 25.6c0 0 0 4.267 0 4.267 21.333 59.733 29.867 119.467 34.133 179.2 0 0 0 0 0 0v29.867c0 12.8-8.533 25.6-12.8 34.133-8.533 8.533-17.067 12.8-34.133 12.8h-17.067c0 0 0 0 0 0-59.733-4.267-128-17.067-183.467-38.4 0 0-4.267 0-4.267 0-4.267-4.267-8.533-4.267-12.8-8.533 0 0 0 0 0 0-4.267 0-4.267-4.267-4.267-4.267-4.267 0-4.267-4.267-8.533-4.267 0 0 0 0 21.333-21.333l-21.333 21.333c0 0 0 0 0 0s-4.267-4.267-4.267-4.267c0-4.267-8.533-12.8-8.533-21.333v-12.8c0-8.533 4.267-17.067 4.267-17.067v0c0-8.533 0-8.533 0-12.8 4.267-4.267 4.267-8.533 8.533-12.8 12.8-21.333 29.867-38.4 42.667-55.467l-38.4-42.667-98.133 102.4c-12.8 12.8-34.133 12.8-46.933 0l-307.2-307.2v213.333c0 51.2 17.067 89.6 46.933 115.2s72.533 42.667 123.733 42.667h162.133c17.067 0 34.133 12.8 34.133 34.133 0 17.067-12.8 34.133-34.133 34.133h-157.867c-68.267 0-128-21.333-170.667-59.733-42.667-42.667-68.267-98.133-68.267-166.4v-341.333c0-68.267 25.6-123.733 68.267-162.133 34.133-29.867 81.067-51.2 132.267-55.467 4.267 0 8.533-4.267 12.8-4.267s4.267 0 8.533 0 12.8 0 17.067 0h157.867c0 0 0 0 0 0s0 0 0 0h162.133c68.267 0 128 21.333 170.667 59.733s68.267 98.133 68.267 162.133v170.667c0 17.067-12.8 34.133-34.133 34.133-17.067 0-34.133-12.8-34.133-34.133v-170.667c0-51.2-17.067-89.6-46.933-115.2-12.8-12.8-29.867-21.333-51.2-29.867v243.2c0 17.067-12.8 34.133-34.133 34.133s-34.133-12.8-34.133-34.133v-251.733c-4.267 0-8.533 0-12.8 0h-128v362.667c0 17.067-12.8 34.133-34.133 34.133-17.067 0-34.133-12.8-34.133-34.133v-362.667h-106.667v93.867c0 17.067-12.8 34.133-34.133 34.133-17.067 0-34.133-12.8-34.133-34.133v-85.333c-25.6 8.533-51.2 21.333-68.267 34.133-29.867 25.6-46.933 64-46.933 115.2v38.4l332.8 324.267zM657.067 725.333c51.2 17.067 106.667 29.867 162.133 34.133v-4.267c-4.267-55.467-12.8-110.933-29.867-162.133v-4.267c0 0 0 0 0 0s0 0-4.267 0c-25.6 21.333-46.933 38.4-68.267 59.733-21.333 25.6-38.4 46.933-59.733 76.8 4.267-4.267 0 0 0 0s0 0 0 0z" />
<glyph unicode="&#x10ff9e;" glyph-name="web_message" d="M494.933 375.467c-25.6 0-55.467 8.533-76.8 25.6l-183.467 149.333c-12.8 8.533-17.067 29.867-4.267 42.667s29.867 17.067 46.933 4.267l183.467-145.067c21.333-17.067 55.467-17.067 76.8 0l183.467 145.067c12.8 12.8 34.133 8.533 46.933-4.267s8.533-34.133-4.267-46.933l-183.467-145.067c-29.867-17.067-55.467-25.6-85.333-25.6zM294.4 46.933c-136.533 0-238.933 110.933-238.933 256v281.6c0 145.067 102.4 256 238.933 256h401.067c68.267 0 132.267-29.867 174.933-76.8 46.933-46.933 68.267-115.2 64-183.467v-277.333c4.267-64-21.333-132.267-64-179.2-46.933-46.933-110.933-76.8-174.933-76.8h-401.067zM695.467 780.8h-401.067c-102.4 0-174.933-81.067-174.933-192v-277.333c0-110.933 72.533-192 174.933-192h401.067c46.933 0 93.867 21.333 128 55.467s51.2 85.333 46.933 136.533v281.6c4.267 51.2-12.8 98.133-46.933 136.533-29.867 25.6-76.8 46.933-128 51.2z" />
<glyph unicode="&#x10ff9f;" glyph-name="web_library" d="M887.467 738.133c0 0-4.267 4.267 0 0 0 4.267 0 8.533 0 8.533s0 4.267-4.267 4.267c0 0 0 4.267-4.267 4.267 0 0-4.267 4.267-4.267 4.267s0 0 0 0c-55.467 38.4-119.467 55.467-187.733 55.467-59.733 0-119.467-17.067-174.933-46.933-51.2 29.867-110.933 46.933-174.933 46.933-68.267 0-128-17.067-187.733-55.467 0 0 0 0-4.267-4.267 0 0-4.267-4.267-4.267-4.267s-4.267-4.267-4.267-4.267c0 0 0-4.267-4.267-4.267 0 0 0-4.267 0-4.267s0 0 0-4.267v-576c0 0 0 0 0-4.267 0 0 0-4.267 0-4.267 0-4.267 0-4.267 4.267-4.267 0 0 0 0 0-4.267 0 0 0 0 0 0s4.267-4.267 4.267-4.267c0 0 4.267 0 4.267-4.267 0 0 4.267 0 4.267-4.267 0 0 4.267 0 4.267 0s4.267 0 4.267 0c0 0 0 0 4.267 0 0 0 4.267 0 4.267 0 4.267 0 4.267 0 8.533 4.267 0 0 0 0 4.267 0 46.933 29.867 93.867 46.933 149.333 46.933s106.667-17.067 149.333-46.933c4.267-4.267 12.8-4.267 17.067-4.267 0 0 0 0 4.267 0 0 0 4.267 0 4.267 0 8.533 0 12.8 0 21.333 4.267 46.933 29.867 93.867 46.933 149.333 46.933s106.667-17.067 149.333-46.933c0 0 0 0 4.267 0 0 0 4.267 0 8.533-4.267 0 0 4.267 0 4.267 0s0 0 4.267 0c0 0 4.267 0 4.267 0s4.267 0 4.267 0 4.267 0 4.267 4.267c0 0 4.267 0 4.267 4.267 0 0 4.267 4.267 4.267 4.267s0 0 0 0 0 0 0 4.267c0 0 0 4.267 4.267 4.267 0 0 0 4.267 0 4.267s0 0 0 4.267v580.267zM204.8 529.067c42.667 25.6 85.333 38.4 136.533 38.4s98.133-12.8 140.8-38.4v-119.467c-42.667 21.333-89.6 29.867-140.8 29.867-46.933 0-93.867-8.533-136.533-29.867v119.467zM541.867 524.8c42.667 25.6 89.6 42.667 140.8 42.667 46.933 0 93.867-12.8 136.533-38.4v-119.467c-42.667 17.067-89.6 29.867-136.533 29.867-51.2 0-98.133-8.533-140.8-29.867v115.2zM819.2 721.067v-119.467c-42.667 17.067-89.6 29.867-136.533 29.867-51.2 0-98.133-8.533-140.8-29.867v115.2c42.667 25.6 89.6 42.667 140.8 42.667 51.2-4.267 98.133-17.067 136.533-38.4zM477.867 716.8v-119.467c-42.667 21.333-89.6 29.867-140.8 29.867-46.933 4.267-89.6-8.533-132.267-25.6v119.467c42.667 25.6 85.333 38.4 136.533 38.4 46.933-4.267 93.867-17.067 136.533-42.667zM204.8 217.6v119.467c42.667 25.6 85.333 38.4 136.533 38.4s98.133-12.8 140.8-38.4v-119.467c-42.667 21.333-89.6 29.867-140.8 29.867s-93.867-12.8-136.533-29.867zM541.867 213.333v119.467c42.667 25.6 89.6 42.667 140.8 42.667 46.933 0 93.867-12.8 136.533-38.4v-119.467c-42.667 17.067-89.6 29.867-136.533 29.867s-93.867-12.8-140.8-34.133z" />
<glyph unicode="&#x10ffa0;" glyph-name="web_manage_contact" d="M657.067 908.8h-290.133c-145.067 0-268.8-102.4-268.8-251.733v-422.4c0-72.533 29.867-140.8 81.067-183.467 51.2-46.933 115.2-72.533 187.733-68.267h290.133c68.267-4.267 132.267 21.333 183.467 64 0 0 0 0 4.267 0s4.267 4.267 8.533 8.533c0 0 0 4.267 4.267 4.267 46.933 46.933 72.533 106.667 72.533 174.933v418.133c0 153.6-123.733 256-273.067 256zM661.333 42.667c0 0-4.267 0 0 0h-294.4c0 0 0 0-4.267 0-42.667-4.267-81.067 8.533-115.2 29.867 21.333 12.8 42.667 21.333 68.267 25.6 0 0 0 0 0 0 29.867 4.267 68.267 8.533 102.4 12.8 64 4.267 128 4.267 192 0 0 0 0 0 0 0 29.867 0 64-4.267 93.867-12.8v0c25.6-4.267 46.933-12.8 64-25.6-29.867-21.333-68.267-29.867-106.667-29.867zM861.867 230.4c0-42.667-17.067-85.333-42.667-115.2-29.867 21.333-68.267 38.4-98.133 42.667-38.4 8.533-76.8 12.8-110.933 12.8-68.267 4.267-132.267 4.267-200.533 0 0 0 0 0 0 0v0c-34.133-4.267-72.533-8.533-102.4-12.8-38.4-4.267-76.8-17.067-106.667-42.667-25.6 34.133-42.667 72.533-42.667 115.2v422.4c0 110.933 89.6 187.733 204.8 187.733h290.133c119.467 0 204.8-76.8 204.8-187.733v-422.4zM516.267 627.2c-98.133 0-174.933-81.067-174.933-174.933 0-98.133 76.8-174.933 174.933-174.933s174.933 76.8 174.933 174.933-76.8 174.933-174.933 174.933zM516.267 341.333c-64 0-110.933 46.933-110.933 110.933 0 59.733 51.2 110.933 110.933 110.933 64 0 110.933-46.933 110.933-110.933s-51.2-110.933-110.933-110.933z" />
<glyph unicode="&#x10ffa1;" glyph-name="web_manage_wallet-1" d="M853.333 806.4c-42.667 42.667-102.4 68.267-170.667 68.267h-362.667c-72.533 0-132.267-25.6-170.667-68.267-42.667-46.933-64-106.667-64-179.2v-337.067c0-68.267 21.333-132.267 64-174.933 42.667-46.933 102.4-68.267 170.667-68.267h362.667c72.533 0 132.267 25.6 170.667 68.267 42.667 46.933 64 106.667 64 174.933v337.067c0 72.533-21.333 132.267-64 179.2zM853.333 349.867h-157.867c-46.933 0-81.067 38.4-81.067 81.067 0 46.933 38.4 81.067 81.067 81.067h140.8c4.267 0 8.533 0 12.8 4.267v-166.4zM806.4 157.867c-29.867-34.133-68.267-51.2-123.733-51.2h-362.667c-55.467 0-98.133 17.067-123.733 51.2-29.867 29.867-46.933 76.8-46.933 132.267v337.067c0 55.467 17.067 102.4 46.933 132.267s72.533 51.2 123.733 51.2h362.667c55.467 0 98.133-17.067 123.733-51.2 29.867-29.867 46.933-76.8 46.933-132.267v-55.467c-4.267 4.267-8.533 4.267-12.8 4.267h-140.8c-81.067 0-140.8-64-140.8-140.8 0-81.067 64-140.8 140.8-140.8h153.6c0-59.733-17.067-106.667-46.933-136.533zM716.8 469.333h-8.533c-12.8 0-25.6-12.8-25.6-29.867s12.8-29.867 25.6-29.867h8.533c12.8 0 25.6 12.8 25.6 29.867s-12.8 29.867-25.6 29.867zM247.467 456.533c-12.8 0-29.867-8.533-34.133-25.6s8.533-29.867 25.6-34.133c46.933-8.533 85.333-46.933 93.867-93.867 4.267-17.067 17.067-25.6 34.133-25.6 17.067 4.267 25.6 17.067 25.6 34.133-17.067 72.533-72.533 128-145.067 145.067zM247.467 576c-17.067 0-34.133-8.533-34.133-25.6s8.533-29.867 25.6-34.133c110.933-12.8 200.533-102.4 213.333-213.333 0-17.067 17.067-29.867 34.133-25.6 17.067 0 29.867 17.067 25.6 34.133-17.067 140.8-128 247.467-264.533 264.533z" />
<glyph unicode="&#x10ffa2;" glyph-name="web_manage_wallet" d="M853.333 806.4c-42.667 42.667-102.4 68.267-170.667 68.267h-362.667c-72.533 0-132.267-25.6-170.667-68.267-42.667-46.933-64-106.667-64-179.2v-337.067c0-68.267 21.333-132.267 64-174.933 42.667-46.933 102.4-68.267 170.667-68.267h362.667c72.533 0 132.267 25.6 170.667 68.267 42.667 46.933 64 106.667 64 174.933v337.067c0 72.533-21.333 132.267-64 179.2zM853.333 349.867h-157.867c-46.933 0-81.067 38.4-81.067 81.067 0 46.933 38.4 81.067 81.067 81.067h140.8c4.267 0 8.533 0 12.8 4.267v-166.4zM806.4 157.867c-29.867-34.133-68.267-51.2-123.733-51.2h-362.667c-55.467 0-98.133 17.067-123.733 51.2-29.867 29.867-46.933 76.8-46.933 132.267v337.067c0 55.467 17.067 102.4 46.933 132.267s72.533 51.2 123.733 51.2h362.667c55.467 0 98.133-17.067 123.733-51.2 29.867-29.867 46.933-76.8 46.933-132.267v-55.467c-4.267 4.267-8.533 4.267-12.8 4.267h-140.8c-81.067 0-140.8-64-140.8-140.8 0-81.067 64-140.8 140.8-140.8h153.6c0-59.733-17.067-106.667-46.933-136.533zM716.8 469.333h-8.533c-12.8 0-25.6-12.8-25.6-29.867s12.8-29.867 25.6-29.867h8.533c12.8 0 25.6 12.8 25.6 29.867s-12.8 29.867-25.6 29.867z" />
<glyph unicode="&#x10ffa3;" glyph-name="web_info" d="M512 21.333c-234.667 0-426.667 192-426.667 426.667s192 426.667 426.667 426.667c234.667 0 426.667-192 426.667-426.667s-192-426.667-426.667-426.667zM512 810.667c-200.533 0-362.667-162.133-362.667-362.667s162.133-362.667 362.667-362.667c200.533 0 362.667 162.133 362.667 362.667s-162.133 362.667-362.667 362.667zM512 388.267c-17.067 0-34.133 12.8-34.133 29.867v192c0 17.067 12.8 34.133 34.133 34.133s34.133-12.8 34.133-34.133v-187.733c-4.267-17.067-17.067-34.133-34.133-34.133zM512 256c-17.067 0-34.133 12.8-34.133 34.133s17.067 29.867 34.133 29.867v0c17.067 0 34.133-12.8 34.133-34.133s-17.067-29.867-34.133-29.867z" />
<glyph unicode="&#x10ffa4;" glyph-name="web_key" d="M712.533 503.467h-217.6c-12.8 42.667-51.2 72.533-98.133 72.533-55.467 0-98.133-42.667-98.133-98.133s42.667-98.133 98.133-98.133c46.933 0 81.067 29.867 93.867 72.533h81.067v-42.667c0-17.067 12.8-29.867 29.867-29.867s29.867 12.8 29.867 29.867v42.667h51.2v-42.667c0-17.067 12.8-29.867 29.867-29.867s29.867 12.8 29.867 29.867v72.533c0 8.533-12.8 21.333-29.867 21.333zM396.8 435.2c-21.333 0-42.667 17.067-42.667 42.667s17.067 42.667 42.667 42.667c21.333 0 42.667-17.067 42.667-42.667 0 0 0 0 0 0s0 0 0 0c0-25.6-17.067-42.667-42.667-42.667zM866.133 793.6c-42.667 46.933-102.4 68.267-170.667 68.267h-362.667c-72.533 0-132.267-25.6-170.667-68.267-42.667-42.667-68.267-106.667-68.267-174.933v-341.333c0-68.267 21.333-132.267 64-174.933 42.667-46.933 102.4-68.267 170.667-68.267h358.4c72.533 0 132.267 25.6 170.667 68.267 42.667 46.933 64 106.667 64 174.933v341.333c8.533 68.267-17.067 132.267-55.467 174.933zM861.867 277.333c0-55.467-17.067-102.4-46.933-132.267s-72.533-51.2-123.733-51.2h-358.4c-55.467 0-98.133 17.067-123.733 51.2-29.867 29.867-46.933 76.8-46.933 132.267v341.333c0 55.467 17.067 102.4 46.933 132.267s72.533 51.2 123.733 51.2h358.4c55.467 0 98.133-17.067 123.733-51.2 29.867-29.867 46.933-76.8 46.933-132.267v-341.333z" />
<glyph unicode="&#x10ffa5;" glyph-name="web_language" d="M827.733 755.2c-38.4 42.667-93.867 68.267-149.333 68.267h-332.8c-123.733 0-204.8-102.4-204.8-217.6v-465.067c0-8.533 4.267-21.333 12.8-25.6s17.067-8.533 25.6-4.267l170.667 46.933h332.8c59.733 0 115.2 25.6 149.333 68.267 38.4 42.667 59.733 93.867 55.467 153.6v217.6c0 59.733-21.333 110.933-59.733 157.867zM819.2 366.933c4.267-38.4-12.8-76.8-38.4-106.667s-64-46.933-102.4-46.933h-332.8c-4.267 0-4.267 0-8.533 0l-132.267-34.133v426.667c0 89.6 59.733 153.6 140.8 153.6h332.8c38.4 0 76.8-17.067 102.4-46.933v0c29.867-34.133 42.667-72.533 42.667-110.933 0 0 0 0 0-4.267l-4.267-230.4c0 0 0 0 0 0zM409.6 695.467c-8.533 8.533-17.067 17.067-29.867 17.067s-25.6-8.533-29.867-17.067l-85.333-170.667c-8.533-17.067 0-34.133 12.8-42.667s34.133 0 42.667 12.8l12.8 25.6h89.6l12.8-25.6c8.533-17.067 25.6-21.333 42.667-12.8s21.333 25.6 12.8 42.667l-81.067 170.667zM366.933 584.533l12.8 25.6 12.8-25.6h-25.6zM768 413.867c0 17.067-12.8 34.133-34.133 34.133h-59.733v8.533c0 17.067-12.8 34.133-34.133 34.133s-34.133-12.8-34.133-34.133v-8.533h-51.2c-17.067 0-34.133-12.8-34.133-34.133s12.8-34.133 34.133-34.133h34.133c-17.067-34.133-34.133-55.467-55.467-68.267-12.8-8.533-17.067-29.867-8.533-42.667s29.867-17.067 42.667-8.533c25.6 17.067 46.933 42.667 68.267 76.8 21.333-34.133 42.667-59.733 68.267-76.8 12.8-8.533 34.133-4.267 42.667 8.533s4.267 34.133-8.533 42.667c-17.067 12.8-34.133 34.133-55.467 68.267h42.667c29.867 4.267 42.667 17.067 42.667 34.133z" />
<glyph unicode="&#x10ffa6;" glyph-name="web_friend_invite" d="M686.933 315.733c-59.733 21.333-136.533 25.6-217.6 25.6s-157.867-4.267-217.6-25.6c-29.867-8.533-55.467-25.6-76.8-46.933s-34.133-51.2-34.133-81.067c0-34.133 12.8-59.733 34.133-81.067s46.933-34.133 76.8-46.933c59.733-21.333 136.533-25.6 217.6-25.6s157.867 4.267 217.6 25.6c29.867 8.533 55.467 25.6 76.8 46.933s34.133 51.2 34.133 81.067c0 34.133-12.8 59.733-34.133 81.067s-46.933 38.4-76.8 46.933zM716.8 153.6c-8.533-12.8-25.6-21.333-51.2-29.867-51.2-17.067-119.467-21.333-196.267-21.333s-149.333 4.267-196.267 21.333c-25.6 8.533-42.667 17.067-51.2 29.867-8.533 8.533-17.067 21.333-17.067 38.4s4.267 25.6 17.067 38.4c8.533 12.8 25.6 21.333 51.2 29.867 51.2 17.067 119.467 21.333 196.267 21.333s149.333-4.267 196.267-21.333c25.6-8.533 42.667-17.067 51.2-29.867 8.533-8.533 17.067-21.333 17.067-38.4-4.267-17.067-8.533-29.867-17.067-38.4zM465.067 413.867v0c123.733 0 226.133 98.133 226.133 221.867 0 128-98.133 226.133-221.867 226.133-119.467 0-221.867-98.133-221.867-226.133-4.267-115.2 89.6-217.6 217.6-221.867zM465.067 797.867c89.6 0 162.133-68.267 162.133-162.133 0-89.6-72.533-157.867-162.133-157.867s-162.133 72.533-162.133 157.867c4.267 93.867 76.8 162.133 162.133 162.133zM938.667 529.067h-51.2v51.2c0 17.067-12.8 34.133-34.133 34.133-17.067 0-34.133-12.8-34.133-34.133v-51.2h-51.2c-17.067 0-34.133-12.8-34.133-34.133s12.8-34.133 34.133-34.133h55.467v-51.2c0-17.067 12.8-34.133 34.133-34.133 17.067 0 34.133 12.8 34.133 34.133v51.2h46.933c17.067 0 34.133 12.8 34.133 34.133s-17.067 34.133-34.133 34.133z" />
<glyph unicode="&#x10ffa7;" glyph-name="web_gas" d="M891.733 460.8l-89.6 174.933c-8.533 12.8-25.6 17.067-38.4 12.8-12.8-8.533-17.067-25.6-12.8-38.4l42.667-81.067-34.133-72.533c-4.267-8.533-4.267-12.8 0-21.333 4.267-4.267 8.533-8.533 17.067-8.533h59.733v-243.2c0-34.133-29.867-59.733-59.733-59.733 0 0 0 0 0 0h-59.733v499.2c0 123.733-102.4 209.067-221.867 209.067h-145.067c-119.467 0-221.867-85.333-221.867-209.067v-524.8c0-17.067 12.8-25.6 25.6-25.6h533.333c0 0 0 0 0 0h89.6c0 0 0 0 0 0 64 0 115.2 51.2 115.2 115.2v260.267c4.267 4.267 4.267 8.533 0 12.8zM661.333 123.733h-477.867v499.2c0 89.6 72.533 153.6 166.4 153.6h145.067c93.867 0 166.4-64 166.4-153.6v-499.2zM554.667 648.533h-264.533c-12.8 0-21.333-8.533-21.333-21.333v-174.933c0-12.8 8.533-21.333 21.333-21.333h264.533c12.8 0 21.333 8.533 21.333 21.333v174.933c0 12.8-8.533 21.333-21.333 21.333zM533.333 473.6h-221.867v132.267h226.133v-132.267z" />
<glyph unicode="&#x10ffa8;" glyph-name="web_hide" d="M648.533 448c17.067-4.267 29.867-21.333 25.6-38.4-12.8-68.267-64-123.733-132.267-132.267-17.067-4.267-34.133 8.533-38.4 25.6s8.533 34.133 25.6 38.4c42.667 8.533 76.8 42.667 81.067 81.067 4.267 17.067 21.333 29.867 38.4 25.6zM934.4 456.533c-21.333 51.2-51.2 98.133-81.067 140.8-8.533 12.8-29.867 17.067-46.933 4.267-12.8-8.533-17.067-29.867-4.267-46.933 25.6-34.133 46.933-72.533 68.267-115.2-81.067-179.2-217.6-281.6-358.4-281.6-34.133 0-68.267 4.267-98.133 17.067-17.067 4.267-34.133-4.267-38.4-21.333s4.267-34.133 21.333-38.4c38.4-12.8 76.8-21.333 119.467-21.333 179.2 0 337.067 128 422.4 332.8 0 12.8 0 21.333-4.267 29.867zM870.4 802.133c-12.8 12.8-34.133 12.8-46.933 0l-89.6-89.6c-68.267 46.933-145.067 72.533-226.133 72.533-89.6 0-174.933-29.867-247.467-89.6-72.533-55.467-132.267-140.8-179.2-243.2 4.267-4.267 4.267-12.8 8.533-21.333 38.4-89.6 89.6-162.133 149.333-217.6l-85.333-85.333c-12.8-12.8-12.8-34.133 0-46.933s34.133-12.8 46.933 0l669.867 674.133c12.8 12.8 12.8 34.133 0 46.933zM153.6 443.733c38.4 85.333 93.867 157.867 153.6 204.8v0c64 51.2 132.267 76.8 209.067 76.8 64 0 123.733-21.333 179.2-55.467l-85.333-85.333c-25.6 17.067-59.733 29.867-93.867 29.867-93.867 0-166.4-72.533-166.4-166.4 0-34.133 8.533-68.267 29.867-93.867l-89.6-89.6c-59.733 38.4-102.4 102.4-136.533 179.2zM422.4 396.8c-8.533 12.8-12.8 29.867-12.8 46.933 0 55.467 46.933 102.4 102.4 102.4 17.067 0 34.133-4.267 46.933-12.8l-136.533-136.533z" />
<glyph unicode="&#x10ffa9;" glyph-name="web_event" d="M827.733 750.933c-34.133 29.867-76.8 46.933-132.267 51.2v29.867c0 17.067-12.8 34.133-34.133 34.133-17.067 0-34.133-12.8-34.133-34.133v-29.867h-234.667v29.867c0 17.067-12.8 34.133-34.133 34.133-17.067 0-29.867-17.067-29.867-34.133v-29.867c-51.2-4.267-93.867-21.333-128-51.2-42.667-38.4-64-89.6-64-153.6v-341.333c0-64 17.067-119.467 59.733-153.6 38.4-38.4 93.867-55.467 153.6-55.467h320c59.733 0 115.2 17.067 153.6 55.467s59.733 89.6 59.733 157.867v341.333c0 59.733-17.067 110.933-55.467 149.333zM243.2 704c21.333 17.067 46.933 29.867 85.333 34.133v-29.867c0-17.067 12.8-34.133 34.133-34.133 17.067 0 34.133 12.8 34.133 34.133v29.867h243.2v-34.133c0-17.067 12.8-34.133 34.133-34.133 17.067 0 34.133 12.8 34.133 34.133v34.133c38.4-4.267 68.267-17.067 85.333-34.133 21.333-21.333 38.4-55.467 38.4-106.667v-12.8h-631.467v12.8c0 51.2 17.067 85.333 42.667 106.667zM780.8 145.067c-25.6-21.333-59.733-34.133-110.933-34.133h-320c-51.2 0-85.333 12.8-110.933 34.133-21.333 21.333-38.4 55.467-38.4 110.933v264.533h618.667v-264.533c0-51.2-12.8-89.6-38.4-110.933zM640 439.467c-17.067 0-34.133-12.8-34.133-34.133v-145.067c0-17.067 12.8-34.133 34.133-34.133 17.067 0 34.133 12.8 34.133 34.133v145.067c-4.267 17.067-17.067 34.133-34.133 34.133zM554.667 439.467h-166.4c0 0 0 0 0 0h-4.267c-17.067 0-34.133-12.8-34.133-34.133s12.8-34.133 34.133-34.133h136.533v-8.533h-136.533c-17.067 0-34.133-12.8-34.133-34.133s12.8-34.133 34.133-34.133h136.533v-12.8h-132.267c0 0 0 0 0 0h-4.267c-17.067 0-34.133-12.8-34.133-34.133 0-17.067 12.8-34.133 34.133-34.133h170.667c4.267 0 8.533 0 12.8 4.267 12.8 4.267 21.333 17.067 21.333 29.867v157.867c0 17.067-17.067 34.133-34.133 34.133z" />
<glyph unicode="&#x10ffaa;" glyph-name="web_fail" d="M520.533 866.133c-234.667 0-426.667-192-426.667-426.667s192-426.667 426.667-426.667c234.667 0 426.667 192 426.667 426.667s-187.733 426.667-426.667 426.667zM520.533 72.533c-200.533 0-362.667 162.133-362.667 362.667s162.133 362.667 362.667 362.667c200.533 0 362.667-162.133 362.667-362.667 4.267-196.267-162.133-362.667-362.667-362.667zM576 430.933l81.067 81.067c12.8 12.8 12.8 34.133 0 46.933s-34.133 12.8-46.933 0l-81.067-81.067-81.067 81.067c-12.8 12.8-34.133 12.8-46.933 0s-12.8-34.133 0-46.933l81.067-81.067-81.067-81.067c-12.8-12.8-12.8-34.133 0-46.933 4.267-4.267 12.8-8.533 21.333-8.533s17.067 4.267 21.333 8.533l81.067 81.067 81.067-81.067c4.267-4.267 12.8-8.533 21.333-8.533s17.067 4.267 21.333 8.533c12.8 12.8 12.8 34.133 0 46.933l-72.533 81.067z" />
<glyph unicode="&#x10ffab;" glyph-name="web_delete" d="M827.733 588.8c-17.067 0-34.133-12.8-34.133-29.867 0-4.267-21.333-290.133-38.4-405.333-4.267-42.667-25.6-64-68.267-64-115.2-4.267-226.133 0-332.8 0-38.4 0-64 21.333-68.267 64-12.8 119.467-34.133 405.333-38.4 409.6 0 17.067-17.067 29.867-34.133 29.867s-29.867-17.067-29.867-34.133c0-4.267 21.333-290.133 38.4-409.6 8.533-72.533 55.467-119.467 128-119.467 55.467 0 110.933 0 170.667 0 55.467 0 110.933 0 166.4 0 72.533 0 123.733 46.933 132.267 119.467 12.8 119.467 38.4 405.333 38.4 409.6 0 12.8-12.8 25.6-29.867 29.867zM883.2 725.333h-140.8c-17.067 0-34.133 12.8-38.4 29.867l-12.8 55.467c-8.533 38.4-42.667 64-85.333 64h-179.2c-38.4 0-72.533-25.6-85.333-68.267l-4.267-51.2c-4.267-17.067-21.333-29.867-38.4-29.867h-136.533c-21.333 0-34.133-12.8-34.133-29.867s12.8-34.133 34.133-34.133h725.333c17.067 0 34.133 12.8 34.133 34.133s-21.333 29.867-38.4 29.867zM401.067 742.4l8.533 51.2c4.267 8.533 12.8 17.067 21.333 17.067h179.2c8.533 0 21.333-8.533 21.333-12.8l8.533-51.2c0-4.267 4.267-12.8 4.267-17.067h-256c8.533 0 8.533 8.533 12.8 12.8z" />
<glyph unicode="&#x10ffac;" glyph-name="web_drop_down" d="M512 249.6c-12.8 0-25.6 6.4-32 12.8l-300.8 300.8c-19.2 19.2-19.2 51.2 0 70.4s51.2 19.2 70.4 0l262.4-268.8 262.4 262.4c19.2 19.2 51.2 19.2 70.4 0s19.2-51.2 0-70.4l-300.8-300.8c-6.4 0-19.2-6.4-32-6.4z" />
<glyph unicode="&#x10ffad;" glyph-name="web_edit" d="M797.867 657.067c-4.267 29.867-25.6 55.467-51.2 76.8l-59.733 46.933c-55.467 42.667-128 38.4-166.4-12.8 0 0 0 0 0 0l-68.267-85.333c0 0 0 0 0 0s0 0 0 0l-281.6-366.933c-17.067-21.333-25.6-51.2-17.067-81.067l29.867-132.267c4.267-12.8 17.067-25.6 29.867-25.6 0 0 0 0 0 0h136.533c29.867 0 55.467 12.8 72.533 38.4l354.133 452.267c21.333 25.6 29.867 59.733 21.333 89.6zM375.467 157.867c-4.267-8.533-12.8-12.8-25.6-12.8h-110.933l-25.6 106.667c0 8.533 0 17.067 8.533 25.6l268.8 341.333 153.6-119.467-268.8-341.333zM729.6 605.867l-46.933-55.467-153.6 119.467 46.933 59.733c21.333 29.867 55.467 17.067 76.8 0l59.733-46.933c12.8-12.8 25.6-25.6 25.6-38.4s0-25.6-8.533-38.4zM857.6 145.067h-273.067c-17.067 0-34.133-12.8-34.133-34.133s12.8-34.133 34.133-34.133h273.067c17.067 0 34.133 12.8 34.133 34.133s-17.067 34.133-34.133 34.133z" />
<glyph unicode="&#x10ffae;" glyph-name="web_convert" d="M682.667 780.8h-512c-17.067 0-34.133-17.067-34.133-34.133s17.067-34.133 34.133-34.133h512c76.8 0 136.533-64 136.533-136.533v-217.6c0-17.067 12.8-34.133 34.133-34.133s34.133 12.8 34.133 34.133v217.6c0 110.933-93.867 204.8-204.8 204.8zM874.667 174.933l-183.467 183.467c-12.8 12.8-34.133 12.8-46.933 0s-12.8-34.133 0-46.933l128-128h-430.933c-76.8 0-136.533 64-136.533 136.533v221.867c0 17.067-12.8 34.133-34.133 34.133s-34.133-17.067-34.133-34.133v-217.6c0-110.933 89.6-204.8 204.8-204.8h512c4.267 0 8.533 0 8.533 0s0 0 0 0c12.8 4.267 21.333 17.067 21.333 29.867 4.267 12.8 0 21.333-8.533 25.6z" />
<glyph unicode="&#x10ffaf;" glyph-name="web_create_new" d="M512 874.667c-234.667 0-426.667-192-426.667-426.667s192-426.667 426.667-426.667c234.667 0 426.667 192 426.667 426.667s-192 426.667-426.667 426.667zM512 85.333c-200.533 0-362.667 162.133-362.667 362.667s162.133 362.667 362.667 362.667c200.533 0 362.667-162.133 362.667-362.667s-162.133-362.667-362.667-362.667zM652.8 465.067h-110.933v115.2c0 17.067-12.8 29.867-29.867 29.867s-29.867-12.8-29.867-29.867v-110.933h-110.933c-17.067 0-29.867-12.8-29.867-29.867s12.8-29.867 29.867-29.867h110.933v-110.933c0-17.067 12.8-29.867 29.867-29.867s29.867 12.8 29.867 29.867v110.933h110.933c17.067 0 29.867 12.8 29.867 29.867 0 12.8-12.8 25.6-29.867 25.6z" />
<glyph unicode="&#x10ffb0;" glyph-name="web_call_contract" d="M866.133 640l-217.6 226.133c-4.267 4.267-12.8 8.533-21.333 8.533h-8.533c0 0 0 0-4.267 0s0 0-4.267 0h-264.533c-106.667 0-196.267-89.6-196.267-192v-456.533c0-110.933 85.333-200.533 196.267-200.533h341.333c102.4 0 192 89.6 192 200.533v392.533c0 8.533-4.267 12.8-12.8 21.333zM776.533 640c-17.067 0-34.133 0-51.2 0-42.667 0-76.8 34.133-76.8 76.8v55.467l128-132.267zM686.933 89.6h-341.333c-72.533 0-132.267 59.733-132.267 136.533v456.533c0 68.267 59.733 128 132.267 128h238.933v-89.6c0-81.067 64-145.067 140.8-145.067 34.133 0 55.467 0 72.533 0 4.267 0 8.533 0 12.8 0v-349.867c4.267-72.533-55.467-136.533-123.733-136.533zM640 366.933c-4.267 0-8.533 4.267-8.533 8.533-8.533 12.8-4.267 29.867 8.533 34.133 12.8 8.533 17.067 25.6 12.8 38.4l-12.8 21.333c-8.533 12.8-25.6 17.067-42.667 12.8-12.8-8.533-29.867-4.267-38.4 8.533-4.267 4.267-4.267 8.533-4.267 12.8s0 12.8-4.267 17.067c-4.267 8.533-17.067 12.8-25.6 12.8h-21.333c-8.533 0-21.333-4.267-25.6-12.8-4.267-4.267-4.267-8.533-4.267-17.067 0-4.267 0-8.533-4.267-12.8-8.533-12.8-25.6-17.067-38.4-8.533s-34.133 4.267-42.667-12.8l-8.533-17.067c-8.533-12.8-4.267-34.133 12.8-38.4 12.8-8.533 17.067-21.333 8.533-34.133-4.267-4.267-4.267-8.533-8.533-8.533-4.267-4.267-8.533-8.533-12.8-12.8-4.267-8.533-4.267-21.333 0-29.867l8.533-17.067c4.267-8.533 17.067-12.8 25.6-12.8 4.267 0 12.8 0 17.067 4.267s8.533 4.267 12.8 4.267c12.8 0 25.6-12.8 25.6-25.6 0-17.067 12.8-29.867 29.867-29.867h21.333c17.067 0 29.867 12.8 29.867 29.867 0 12.8 12.8 25.6 25.6 25.6 4.267 0 8.533 0 12.8-4.267s8.533-4.267 17.067-4.267c8.533 0 21.333 4.267 25.6 12.8l8.533 17.067c4.267 8.533 4.267 21.333 0 29.867 8.533 4.267 4.267 8.533 0 8.533zM520.533 349.867c-21.333 0-42.667 17.067-42.667 38.4s17.067 38.4 42.667 38.4 42.667-17.067 42.667-38.4c-4.267-21.333-21.333-38.4-42.667-38.4z" />
<glyph unicode="&#x10ffb1;" glyph-name="web_close_square" d="M558.933 448l81.067 81.067c12.8 12.8 12.8 34.133 0 46.933s-34.133 12.8-46.933 0l-81.067-81.067-81.067 81.067c-12.8 12.8-34.133 12.8-46.933 0s-12.8-34.133 0-46.933l81.067-81.067-81.067-81.067c-12.8-12.8-12.8-34.133 0-46.933s34.133-12.8 46.933 0l81.067 81.067 81.067-81.067c12.8-12.8 34.133-12.8 46.933 0s12.8 34.133 0 46.933l-81.067 81.067zM874.667 802.133c-42.667 46.933-106.667 72.533-179.2 72.533h-366.933c-72.533 0-136.533-25.6-179.2-72.533s-64-106.667-64-179.2v-349.867c0-72.533 21.333-136.533 64-179.2 42.667-46.933 106.667-72.533 179.2-72.533h371.2c72.533 0 132.267 25.6 174.933 72.533s64 110.933 64 179.2v349.867c0 72.533-21.333 132.267-64 179.2zM874.667 273.067c0-59.733-17.067-106.667-46.933-136.533s-72.533-51.2-128-51.2h-371.2c-55.467 0-102.4 21.333-128 51.2-29.867 34.133-46.933 76.8-46.933 136.533v349.867c0 59.733 17.067 106.667 46.933 136.533s72.533 51.2 128 51.2h371.2c55.467 0 102.4-21.333 128-51.2 29.867-34.133 46.933-76.8 46.933-136.533v-349.867z" />
<glyph unicode="&#x10ffb2;" glyph-name="web_close" d="M558.933 448l234.667 234.667c12.8 12.8 12.8 34.133 0 46.933s-34.133 12.8-46.933 0l-234.667-234.667-234.667 230.4c-12.8 12.8-34.133 12.8-46.933 0s-12.8-34.133 0-46.933l234.667-234.667-234.667-234.667c-12.8-12.8-12.8-34.133 0-46.933 4.267-4.267 12.8-8.533 21.333-8.533s17.067 4.267 21.333 8.533l234.667 234.667 234.667-234.667c4.267-4.267 12.8-8.533 21.333-8.533s17.067 4.267 21.333 8.533c12.8 12.8 12.8 34.133 0 46.933l-226.133 238.933z" />
<glyph unicode="&#x10ffb3;" glyph-name="web_collapse" d="M674.133 832h-324.267c-123.733 0-221.867-110.933-221.867-238.933v-102.4c0 0 0 0 0 0v-187.733c0-128 98.133-238.933 221.867-238.933h200.533c0 0 0 0 0 0h119.467c123.733 0 221.867 110.933 221.867 238.933v290.133c4.267 128-93.867 238.933-217.6 238.933zM187.733 302.933v157.867h221.867c59.733 0 110.933-51.2 115.2-123.733h-81.067c-59.733 4.267-102.4-46.933-102.4-106.667 0-51.2 34.133-93.867 81.067-106.667h-72.533c-85.333 0-162.133 76.8-162.133 179.2zM524.8 179.2h-81.067c-21.333 0-46.933 21.333-46.933 51.2s21.333 51.2 46.933 51.2h81.067v-102.4zM836.267 302.933c0-102.4-76.8-179.2-166.4-179.2h-85.333v25.6c0 0 0 0 0 0s0 0 0 0v162.133c0 0 0 0 0 0s0 0 0 0v21.333c0 102.4-76.8 187.733-174.933 187.733h-221.867v72.533c0 102.4 76.8 179.2 166.4 179.2h320c89.6 0 166.4-76.8 166.4-179.2v-290.133zM712.533 567.467h-38.4l59.733 68.267c12.8 12.8 8.533 29.867 0 42.667-12.8 12.8-29.867 8.533-42.667 0l-55.467-59.733v38.4c0 17.067-12.8 29.867-29.867 29.867s-29.867-12.8-29.867-29.867v-115.2c0 0 0 0 0 0 0-4.267 0-4.267 0-4.267s0-4.267 0-4.267c0 0 0-4.267 4.267-4.267 0 0 0-4.267 4.267-4.267 0 0 0 0 0 0s0 0 0 0 4.267 0 4.267-4.267c0 0 4.267-4.267 4.267-4.267s4.267 0 4.267 0c0 0 4.267 0 4.267 0h106.667c17.067 0 29.867 12.8 29.867 29.867 4.267 8.533-8.533 21.333-25.6 21.333z" />
<glyph unicode="&#x10ffb4;" glyph-name="web_ashboard" d="M768 477.867h-110.933c-64 0-115.2 51.2-115.2 115.2v110.933c0 64 51.2 115.2 115.2 115.2h110.933c64 0 115.2-51.2 115.2-115.2v-110.933c0-64-51.2-115.2-115.2-115.2zM657.067 755.2c-29.867 0-51.2-21.333-51.2-51.2v-110.933c0-29.867 21.333-51.2 51.2-51.2h110.933c29.867 0 51.2 21.333 51.2 51.2v110.933c0 29.867-21.333 51.2-51.2 51.2h-110.933zM366.933 477.867h-110.933c-64 0-115.2 51.2-115.2 115.2v110.933c0 64 51.2 115.2 115.2 115.2h110.933c64 0 115.2-51.2 115.2-115.2v-110.933c0-64-51.2-115.2-115.2-115.2zM256 755.2c-29.867 0-51.2-21.333-51.2-51.2v-110.933c0-29.867 21.333-51.2 51.2-51.2h110.933c29.867 0 51.2 21.333 51.2 51.2v110.933c0 29.867-21.333 51.2-51.2 51.2h-110.933zM366.933 72.533h-110.933c-64 0-115.2 51.2-115.2 115.2v110.933c0 64 51.2 115.2 115.2 115.2h110.933c64 0 115.2-51.2 115.2-115.2v-106.667c0-64-51.2-119.467-115.2-119.467zM256 354.133c-29.867 0-51.2-21.333-51.2-51.2v-110.933c0-29.867 21.333-51.2 51.2-51.2h110.933c29.867 0 51.2 21.333 51.2 51.2v110.933c0 29.867-21.333 51.2-51.2 51.2h-110.933zM768 72.533h-110.933c-64 0-115.2 51.2-115.2 115.2v110.933c0 64 51.2 115.2 115.2 115.2h110.933c64 0 115.2-51.2 115.2-115.2v-106.667c0-64-51.2-119.467-115.2-119.467zM657.067 354.133c-29.867 0-51.2-21.333-51.2-51.2v-110.933c0-29.867 21.333-51.2 51.2-51.2h110.933c29.867 0 51.2 21.333 51.2 51.2v110.933c0 29.867-21.333 51.2-51.2 51.2h-110.933z" />
<glyph unicode="&#x10ffb5;" glyph-name="web_bonus" d="M512 908.8c-81.067 0-157.867-21.333-221.867-55.467-4.267 0-8.533-4.267-12.8-8.533 0 0 0 0 0 0-136.533-85.333-226.133-226.133-226.133-396.8 0-251.733 204.8-460.8 460.8-460.8s460.8 209.067 460.8 460.8-209.067 460.8-460.8 460.8zM294.4 776.533l170.667-166.4-315.733-315.733c-21.333 46.933-29.867 98.133-29.867 153.6 0 140.8 68.267 260.267 174.933 328.533zM179.2 234.667l354.133 354.133c4.267 4.267 8.533 12.8 8.533 21.333s-4.267 17.067-8.533 21.333l-179.2 179.2c46.933 21.333 102.4 29.867 157.867 29.867 93.867 0 183.467-34.133 251.733-89.6l-281.6-281.6c-12.8-12.8-12.8-34.133 0-46.933l281.6-281.6c-68.267-55.467-153.6-89.6-251.733-89.6-136.533 4.267-260.267 72.533-332.8 183.467zM806.4 187.733l-256 260.267 260.267 260.267c59.733-68.267 98.133-162.133 98.133-260.267-4.267-98.133-38.4-192-102.4-260.267z" />
<glyph unicode="&#x10ffb6;" glyph-name="web_approve" d="M512 21.333c-234.667 0-426.667 192-426.667 426.667s192 426.667 426.667 426.667c234.667 0 426.667-192 426.667-426.667s-192-426.667-426.667-426.667zM512 810.667c-200.533 0-362.667-162.133-362.667-362.667s162.133-362.667 362.667-362.667c200.533 0 362.667 162.133 362.667 362.667s-162.133 362.667-362.667 362.667zM486.4 298.667c-8.533 0-17.067 4.267-21.333 8.533l-102.4 102.4c-12.8 12.8-12.8 34.133 0 46.933s34.133 12.8 46.933 0l76.8-76.8 179.2 179.2c12.8 12.8 34.133 12.8 46.933 0s12.8-34.133 0-46.933l-200.533-200.533c-8.533-8.533-17.067-12.8-25.6-12.8z" />
<glyph unicode="&#x10ffb7;" glyph-name="web_add_square" d="M853.333 806.4c-42.667 42.667-102.4 68.267-170.667 68.267h-362.667c-72.533 0-132.267-25.6-170.667-68.267-42.667-46.933-64-106.667-64-179.2v-337.067c0-68.267 21.333-132.267 64-174.933 42.667-46.933 102.4-68.267 170.667-68.267h362.667c72.533 0 132.267 25.6 170.667 68.267 42.667 46.933 64 106.667 64 174.933v337.067c0 72.533-21.333 132.267-64 179.2zM853.333 290.133c0-55.467-17.067-102.4-46.933-132.267-29.867-34.133-68.267-51.2-123.733-51.2h-362.667c-55.467 0-98.133 17.067-123.733 51.2-29.867 29.867-46.933 76.8-46.933 132.267v337.067c0 55.467 17.067 102.4 46.933 132.267s72.533 51.2 123.733 51.2h362.667c55.467 0 98.133-17.067 123.733-51.2 29.867-29.867 46.933-76.8 46.933-132.267v-337.067zM631.467 486.4h-102.4v106.667c-4.267 12.8-17.067 25.6-29.867 25.6s-25.6-12.8-25.6-25.6v-102.4h-106.667c-12.8 0-25.6-12.8-25.6-25.6s12.8-25.6 25.6-25.6h102.4v-102.4c0-12.8 12.8-25.6 25.6-25.6s25.6 12.8 25.6 25.6v102.4h102.4c12.8 0 25.6 12.8 25.6 25.6 8.533 12.8-4.267 21.333-17.067 21.333z" />
<glyph unicode="&#x10ffb8;" glyph-name="web_add_wallet" d="M853.333 806.4c-42.667 42.667-102.4 68.267-170.667 68.267h-362.667c-72.533 0-132.267-25.6-170.667-68.267-42.667-46.933-64-106.667-64-179.2v-337.067c0-68.267 21.333-132.267 64-174.933 42.667-46.933 102.4-68.267 170.667-68.267h362.667c72.533 0 132.267 25.6 170.667 68.267 42.667 46.933 64 106.667 64 174.933v337.067c0 72.533-21.333 132.267-64 179.2zM853.333 349.867h-157.867c-46.933 0-81.067 38.4-81.067 81.067 0 46.933 38.4 81.067 81.067 81.067h140.8c4.267 0 8.533 0 12.8 4.267v-166.4zM806.4 157.867c-29.867-34.133-68.267-51.2-123.733-51.2h-362.667c-55.467 0-98.133 17.067-123.733 51.2-29.867 29.867-46.933 76.8-46.933 132.267v337.067c0 55.467 17.067 102.4 46.933 132.267s72.533 51.2 123.733 51.2h362.667c55.467 0 98.133-17.067 123.733-51.2 29.867-29.867 46.933-76.8 46.933-132.267v-55.467c-4.267 4.267-8.533 4.267-12.8 4.267h-140.8c-81.067 0-140.8-64-140.8-140.8 0-81.067 64-140.8 140.8-140.8h153.6c0-59.733-17.067-106.667-46.933-136.533zM716.8 469.333h-8.533c-12.8 0-25.6-12.8-25.6-29.867s12.8-29.867 25.6-29.867h8.533c12.8 0 25.6 12.8 25.6 29.867s-12.8 29.867-25.6 29.867zM486.4 490.667h-93.867v102.4c0 12.8-12.8 25.6-25.6 25.6s-25.6-12.8-25.6-25.6v-102.4h-102.4c-12.8 0-25.6-12.8-25.6-25.6s12.8-25.6 25.6-25.6h102.4v-93.867c0-12.8 12.8-25.6 25.6-25.6s25.6 12.8 25.6 25.6v93.867h93.867c12.8 0 25.6 12.8 25.6 25.6s-12.8 25.6-25.6 25.6z" />
<glyph unicode="&#x10ffb9;" glyph-name="web_add" d="M768 456.533h-221.867v247.467c0 17.067-12.8 34.133-34.133 34.133s-34.133-17.067-34.133-34.133v-247.467h-221.867c-17.067 0-34.133-12.8-34.133-34.133s12.8-34.133 34.133-34.133h221.867v-196.267c0-17.067 12.8-34.133 34.133-34.133s34.133 12.8 34.133 34.133v204.8h221.867c17.067 0 34.133 12.8 34.133 34.133s-17.067 25.6-34.133 25.6z" />
<glyph unicode="&#x10ffba;" glyph-name="web_all_wallet" d="M925.867 576c4.267 64-17.067 123.733-59.733 170.667s-102.4 72.533-166.4 72.533h-375.467c-136.533 0-221.867-115.2-226.133-243.2 0 0 0 0 0 0v-256c0-128 89.6-243.2 226.133-243.2h375.467c64 0 123.733 29.867 166.4 72.533 42.667 46.933 64 106.667 59.733 170.667v256zM162.133 576c0 4.267 0 4.267 0 8.533h699.733c0 0 0-4.267 0-4.267s0 0 0-4.267v-98.133c-4.267 0-12.8 0-21.333 0-21.333 0-55.467 0-85.333 0s-64 0-89.6 0c-12.8 0-25.6 0-34.133 0s-17.067 0-21.333 0c-12.8-4.267-21.333-12.8-25.6-21.333-12.8-38.4-51.2-59.733-89.6-51.2 0 0 0 0 0 0-25.6 4.267-42.667 25.6-46.933 46.933-4.267 12.8-17.067 25.6-29.867 25.6h-256v98.133zM324.267 755.2h375.467c46.933 0 89.6-21.333 119.467-51.2 12.8-17.067 25.6-34.133 34.133-55.467h-678.4c25.6 64 76.8 106.667 149.333 106.667zM814.933 192c-29.867-34.133-72.533-51.2-119.467-51.2h-371.2c-93.867 0-162.133 76.8-162.133 179.2v93.867h230.4c17.067-34.133 46.933-59.733 85.333-72.533 64-17.067 128 12.8 157.867 72.533 8.533 0 17.067 0 25.6 0 25.6 0 55.467 0 89.6 0 29.867 0 64 0 85.333 0 8.533 0 17.067 0 25.6 0v-93.867c0 0 0 0 0-4.267 0-42.667-12.8-89.6-46.933-123.733z" />
<glyph unicode="&#x10ffbb;" glyph-name="web_add_contact" d="M610.133 490.667c55.467 38.4 89.6 102.4 89.6 170.667 0 115.2-93.867 209.067-209.067 209.067s-209.067-89.6-209.067-204.8c0-72.533 34.133-136.533 89.6-170.667-51.2-17.067-98.133-46.933-136.533-85.333-68.267-72.533-106.667-162.133-106.667-260.267h55.467c0 170.667 136.533 307.2 307.2 307.2s307.2-136.533 307.2-307.2h55.467c0 98.133-38.4 187.733-106.667 256-38.4 38.4-85.333 68.267-136.533 85.333zM490.667 512c-85.333 0-153.6 68.267-153.6 153.6s68.267 153.6 153.6 153.6 153.6-68.267 153.6-153.6-68.267-153.6-153.6-153.6zM981.333 520.533h-51.2v55.467c0 17.067-12.8 34.133-34.133 34.133-17.067 0-34.133-12.8-34.133-34.133v-55.467h-51.2c-17.067 0-34.133-12.8-34.133-34.133s12.8-34.133 34.133-34.133h51.2v-46.933c0-17.067 12.8-34.133 34.133-34.133 17.067 0 34.133 12.8 34.133 34.133v55.467h51.2c17.067 0 34.133 12.8 34.133 34.133s-17.067 25.6-34.133 25.6z" />
<glyph unicode="&#x10ffbc;" glyph-name="web_add_liquidity" d="M512 46.933c-162.133 0-345.6 46.933-371.2 145.067 0 8.533-4.267 12.8-4.267 21.333v273.067c0 110.933 192 166.4 375.467 166.4 17.067 0 34.133-12.8 34.133-34.133s-17.067-29.867-34.133-29.867c-187.733 0-311.467-59.733-311.467-102.4 0 0 0 0 0 0v0c0 0 0 0 0 0 0-42.667 119.467-102.4 311.467-102.4 8.533 0 17.067 0 21.333 0 149.333 4.267 251.733 46.933 277.333 85.333 4.267 4.267 4.267 8.533 4.267 8.533 0 4.267 0 4.267 0 8.533 0 0 0 0 0 0 0 17.067 12.8 34.133 34.133 34.133s34.133-12.8 34.133-34.133v-273.067c0-8.533 0-12.8-4.267-21.333-21.333-98.133-204.8-145.067-366.933-145.067zM204.8 388.267v-174.933c0 0 0-4.267 0-4.267 8.533-42.667 123.733-98.133 307.2-98.133s298.667 55.467 307.2 98.133c0 0 0 4.267 0 4.267v174.933c-64-42.667-166.4-64-264.533-68.267-17.067 0-34.133 0-46.933 0-110.933 0-234.667 21.333-302.933 68.267zM716.8 520.533c0 0 0 0 0 0v0c-4.267 0-8.533 0-12.8 4.267 0 0 0 0 0 0s0 0 0 0c-4.267 0-8.533 4.267-8.533 8.533 0 0 0 0 0 0s0 0 0 0 0 0 0 0 0 0 0 0l-89.6 89.6c-12.8 12.8-12.8 34.133 0 46.933s34.133 12.8 46.933 0l38.4-38.4v243.2c0 17.067 12.8 34.133 34.133 34.133s34.133-12.8 34.133-34.133v-243.2l34.133 34.133c12.8 12.8 34.133 12.8 46.933 0s12.8-34.133 0-46.933l-102.4-85.333c0 0 0 0 0 0s0 0 0 0 0 0 0 0 0 0 0 0c-4.267-4.267-8.533-4.267-8.533-8.533 0 0 0 0 0 0s0 0 0 0c-4.267 0-8.533-4.267-12.8-4.267v0c0 0 0 0 0 0z" />
<glyph unicode="&#x10ffbd;" glyph-name="web_launchpad" d="M853.013 732.834c0.311 4.078-0.311 8.475-0.623 12.555-3.46 22.913-21.662 40.492-44.574 43.318l-5.342 0.311-14.75 0.314c-26.991-0.626-53.363-3.14-79.415-7.846-41.122-5.966-81.613-16.322-120.538-30.763-9.097-4.081-18.517-9.103-27.302-14.753 0 0-5.022-4.395-6.276-6.278-33.591-34.843-61.845-73.766-84.753-116.142-51.481-23.856-99.822-54.619-143.763-91.654-7.535-6.908-14.441-15.074-20.721-23.232l-2.507-3.763-0.626-1.254c-2.828-7.846-5.026-16.324-4.709-24.798 0.935-11.618 5.649-23.228 13.81-32.017 7.532-6.903 15.696-13.184 24.168-19.149 26.679-17.89 54.616-33.271 83.182-46.771l11.615-5.333c14.438-32.017 31.078-62.464 49.907-91.968l6.596-9.732c5.333-7.219 11.614-14.127 17.89-20.403 16.009-11.618 36.412-13.815 53.675-5.965l1.254 1.25c11.614 7.223 21.342 16.324 29.82 26.684 11.618 14.127 22.289 28.565 32.96 42.999 21.342 30.767 39.552 62.784 55.245 96.683 41.118 22.285 79.095 49.591 113.626 81.613l0.316 0.311c1.886 1.886 6.276 6.281 6.276 6.281 8.162 10.671 14.443 22.601 18.837 35.157 13.184 37.662 23.228 75.959 29.188 115.823 4.395 23.231 6.592 47.396 7.851 71.252l-0.316 17.268zM415.136 441.856c-12.873 7.215-25.742 14.438-38.609 22.285l-7.535 5.022-4.395 3.767 4.081 4.083c19.148 16.004 39.549 30.758 61.21 44.258-8.474-26.057-13.497-52.425-14.752-79.415zM543.514 306.564l-5.965-6.588-6.588 8.474c-8.785 13.815-17.267 27.934-24.482 42.692 26.995 1.254 53.359 6.276 79.415 14.75-12.557-20.715-26.684-40.491-42.381-59.328zM678.178 481.404l-0.316-0.316c-14.754-9.728-29.815-18.513-45.828-26.368-18.522-9.724-38.293-18.202-58.385-25.105-30.447-10.359-62.464-15.381-94.481-14.754-0.627 32.017 4.395 64.030 14.754 94.481 6.908 20.092 15.066 39.55 24.794 58.069 8.166 16.953 17.267 32.96 27.942 48.655 5.649 9.415 12.241 18.519 19.145 27.305 17.579-23.853 37.039-45.827 57.442-66.229l9.101-9.103c23.543-24.171 48.341-45.825 74.709-66.544-9.105-7.223-18.833-13.815-28.877-20.092zM759.475 551.404l-3.452-7.846-0.316-0.314-8.789 5.649c-21.662 16.633-42.372 34.843-61.837 54.305l-8.474 8.475c-21.658 21.030-41.754 43.627-60.582 67.486l-5.333 7.221-3.14 5.023 5.333 2.192c53.047 19.148 108.919 30.448 165.107 33.903l13.5-0.311 0.311-5.341c-2.193-58.068-13.184-115.513-32.329-170.441zM406.12 294.822l0.032 0.034c12.915 13.090 12.775 34.167-0.314 47.083l-3.389 3.264c-13.152 9.788-31.465 8.559-43.194-2.893-13.173-12.86-13.425-33.967-0.564-47.142l3.736-3.294c13.257-10.065 31.908-8.806 43.692 2.948zM315.375 204.497l-0.314-0.311c10.028 13.227 8.781 31.821-2.921 43.588-12.962 13.039-34.044 13.099-47.082 0.137l-66.543-66.543-2.918-3.354c-10.028-13.231-8.784-31.821 2.918-43.593 12.965-13.035 34.044-13.099 47.084-0.137l66.854 66.859 2.921 3.354zM227.433 246.391l66.854 66.854 2.921 3.358-0.314-0.311c10.028 13.222 8.781 31.817-2.921 43.584-12.962 13.039-34.041 13.103-47.082 0.141l-66.543-66.543-2.918-3.358c-10.028-13.227-8.784-31.817 2.918-43.588 12.965-13.039 34.044-13.103 47.084-0.137zM424.225 229.611c-12.965 13.039-34.044 13.103-47.084 0.137l-66.543-66.543-2.918-3.354c-10.028-13.227-8.781-31.817 2.918-43.588 12.965-13.039 34.044-13.103 47.084-0.141l66.857 66.859 2.917 3.358-0.311-0.311c10.027 13.222 8.781 31.817-2.92 43.584z" />
<glyph unicode="&#x10ffbe;" glyph-name="web_portfolio" d="M703.573 726.587h-9.387v7.255c-5.12 101.971-88.747 182.185-190.72 183.466-106.667 1.706-194.56-83.628-195.842-190.721h-8.534c-117.758 0-213.333-95.146-213.758-213.332v-235.52c0.425-117.76 96-212.907 213.758-213.333h404.482c117.76 0 213.333 95.573 213.76 213.333v235.52c-0.427 118.187-96 213.332-213.76 213.332zM372.052 732.988c4.266 67.414 59.735 120.32 127.148 121.175 71.676 1.279 130.133-55.893 131.413-127.575h-258.561v6.401zM340.906 128.401c0 4.267 0.852 8.107 2.56 11.947 4.266 9.813 22.612 18.773 51.2 24.32 18.346 4.267 51.2 7.68 51.2 7.68s4.267 0.853 12.373 1.707c8.96 0.853 23.467 1.707 43.093 1.707s34.133-0.853 43.089-1.707c8.107-0.853 12.378-1.707 12.378-1.707s32.853-3.413 51.2-7.68c28.587-5.547 46.933-14.507 51.2-24.32 1.707-3.84 2.556-7.68 2.556-11.947h-320.849zM853.333 277.734c0-74.667-55.471-136.96-127.578-147.627h-0.422c0 12.8-2.56 25.6-8.107 37.547-20.48 34.56-56.32 56.32-96 59.307-21.333 5.12-42.667 8.107-64.427 9.387 0 0-19.2 3.413-55.467 3.413s-55.467-3.413-55.467-3.413c-21.76-1.28-43.093-4.267-64.427-9.387-39.682-2.987-75.521-24.747-96-59.307-5.974-11.947-8.107-24.747-8.534-37.547-35.841 5.547-67.414 23.467-90.453 49.92-23.042 26.027-36.695 60.587-37.12 97.707v235.52c0.425 82.772 67.412 149.76 149.758 149.76h331.523v-0.427h73.387c82.347 0 149.333-66.56 149.333-149.332v-235.52zM501.316 618.521c-86.186 0-155.733-69.547-155.733-155.732 0-86.191 69.547-155.738 155.733-155.738s155.733 69.547 155.733 155.738c0 86.186-69.547 155.732-155.733 155.732zM501.316 371.908c-50.347 0-90.879 40.529-90.879 90.88 0 50.347 40.532 90.878 90.879 90.878s90.88-40.532 90.88-90.878c0-50.351-40.533-90.88-90.88-90.88z" />
<glyph unicode="&#x10ffbf;" glyph-name="web_activity" d="M683.721 522.731c13.969-10.825 16.521-30.925 5.696-44.894l-113.762-146.825c-5.222-6.737-12.915-11.115-21.376-12.16-8.457-1.045-16.986 1.327-23.689 6.596l-107.186 84.194-96.541-125.474c-10.777-14.003-30.868-16.623-44.876-5.845s-16.625 30.869-5.848 44.873l116.251 151.091c5.209 6.771 12.909 11.179 21.386 12.241s17.024-1.31 23.744-6.588l107.273-84.267 94.033 121.361c10.825 13.969 30.921 16.521 44.894 5.696zM796.698 757.333c-23.556 0-42.654-19.098-42.654-42.657s19.098-42.656 42.654-42.656c23.561 0 42.658 19.098 42.658 42.656s-19.098 42.657-42.658 42.657zM690.044 714.676c0 58.905 47.748 106.657 106.654 106.657s106.658-47.752 106.658-106.657c0-58.905-47.753-106.656-106.658-106.656s-106.654 47.752-106.654 106.656zM155.415 722.353c39.433 42.536 95.647 66.282 162.071 66.282h282.275c17.673 0 32-14.327 32-32s-14.327-32-32-32h-282.275c-50.538 0-89.067-17.671-115.137-45.792-26.323-28.395-42.349-70.088-42.349-122.004v-313.913c0-52.079 15.764-93.641 41.848-121.86 25.802-27.917 64.26-45.581 115.638-45.581h334.179c50.581 0 89.109 17.613 115.162 45.645 26.3 28.297 42.321 69.884 42.321 121.796v273.387c0 17.671 14.327 31.998 32 31.998 17.677 0 32-14.327 32-31.998v-273.387c0-65.050-20.237-123.183-59.439-165.367-39.45-42.445-95.663-66.074-162.044-66.074h-334.179c-67.007 0-123.292 23.573-162.636 66.138-39.063 42.261-58.85 100.416-58.85 165.303v313.913c0 65.047 20.236 123.252 59.415 165.514z" />
<glyph unicode="&#x10ffc0;" glyph-name="web_address_list" d="M148.915 804.379c42.004 45.065 101.824 70.288 172.457 70.288h359.882c70.797 0 130.641-25.209 172.629-70.3 41.745-44.832 63.45-106.72 63.45-176.159v-339.081c0-69.44-21.705-131.328-63.458-176.162-41.993-45.090-101.845-70.298-172.663-70.298h-359.84c-70.799 0-130.636 25.212-172.612 70.302-41.734 44.834-63.427 106.722-63.427 176.158v339.081c0 69.475 21.81 131.357 63.582 176.171zM195.731 760.742c-28.894-30.999-46.398-76.347-46.398-132.534v-339.081c0-56.226 17.434-101.568 46.272-132.548 28.597-30.724 70.78-49.911 125.766-49.911h359.84c55.010 0 97.216 19.191 125.828 49.916 28.851 30.98 46.293 76.322 46.293 132.544v339.081c0 56.222-17.442 101.564-46.289 132.546-28.608 30.724-70.805 49.913-125.79 49.913h-359.882c-54.779 0-96.979-19.176-125.641-49.925zM512.013 651.219c-53.056 0-96.332-44.288-96.332-98.589s43.276-98.589 96.332-98.589c53.060 0 96.333 44.288 96.333 98.589s-43.273 98.589-96.333 98.589zM512.013 454.042c-88.43 0-160.555-73.813-160.555-164.314h32.111c0 72.785 57.322 131.452 128.443 131.452s128.444-58.667 128.444-131.452h32.111c0 90.5-72.124 164.314-160.555 164.314zM512.013 618.356c35.622 0 64.222-29.269 64.222-65.726s-28.599-65.727-64.222-65.727c-35.622 0-64.222 29.269-64.222 65.727s28.599 65.726 64.222 65.726zM405.555 552.633c0 59.664 47.582 108.701 106.445 108.701s106.445-49.037 106.445-108.701c0-41.426-22.942-77.731-56.67-96.052 69.965-21.879 120.892-88.602 120.892-166.852v-10.112h-52.335v10.112c0 67.426-53.013 121.34-118.332 121.34s-118.332-53.914-118.332-121.34v-10.112h-52.335v10.112c0 78.251 50.926 144.973 120.892 166.852-33.728 18.321-56.67 54.626-56.67 96.052zM512 464.158c47.253 0 86.221 39.535 86.221 88.475 0 48.938-38.967 88.477-86.221 88.477s-86.221-39.539-86.221-88.477c0-48.94 38.968-88.475 86.221-88.475zM512 443.934c-79.33 0-145.008-63.663-150.123-144.094h11.913c5.045 73.438 64.631 131.452 138.21 131.452s133.163-58.014 138.21-131.452h11.913c-5.116 80.431-70.793 144.094-150.123 144.094zM512 608.247c-29.82 0-54.11-24.519-54.11-55.614 0-31.092 24.29-55.613 54.11-55.613s54.11 24.521 54.11 55.613c0 31.095-24.29 55.614-54.11 55.614zM437.666 552.633c0 41.82 32.909 75.838 74.334 75.838s74.334-34.018 74.334-75.838c0-41.819-32.909-75.837-74.334-75.837s-74.334 34.018-74.334 75.837z" />
<glyph unicode="&#x10ffc1;" glyph-name="web_end" d="M610.743 100.352c-1.015-3.793-2.586-5.572-3.908-6.643-1.626-1.323-4.070-2.449-7.091-2.773-3.021-0.32-5.649 0.265-7.518 1.207-1.519 0.768-3.435 2.176-5.227 5.666l-123.14 239.45c-13.431 26.121-34.697 47.386-60.815 60.817l-239.527 123.196c-3.491 1.796-4.899 3.708-5.666 5.227-0.945 1.869-1.53 4.497-1.207 7.519s1.451 5.466 2.77 7.092c1.071 1.321 2.852 2.893 6.644 3.909l586.031 157.027c9.519 2.55 18.227-6.159 15.68-15.677l-157.026-586.017zM829.589 669.805c15.3 57.106-36.958 109.362-94.063 94.060l-586.032-157.027c-67.841-18.178-77.707-110.356-15.249-142.48l239.527-123.196c14.246-7.326 25.845-18.927 33.172-33.173l123.138-239.45c32.124-62.46 124.305-52.595 142.481 15.249l157.026 586.016z" />
<glyph unicode="&#x10ffc2;" glyph-name="web_expand" d="M351.937 772.914h320.135c88.862 0 164.843-78.772 164.843-181.005v-287.939c0-102.234-75.981-181.005-164.843-181.005h-86.357v24.111c0.051 0.704 0.077 1.417 0.077 2.133s-0.026 1.429-0.077 2.133v157.7c0.051 0.708 0.077 1.417 0.077 2.133s-0.026 1.429-0.077 2.133v20.727c0 101.461-76.203 187.614-175.115 187.614h-223.504v70.258c0 102.232 75.98 181.005 164.841 181.005zM554.355 63.881h117.717c125.85 0 223.927 109.756 223.927 240.090v287.939c0 130.332-98.078 240.091-223.927 240.091h-320.135c-125.849 0-223.927-109.758-223.927-240.091v-100.428c-0.006-0.252-0.010-0.508-0.010-0.759l0.010-186.752c0.001-130.33 98.079-240.090 223.927-240.090l201.94-0.004c0.158 0 0.32 0 0.478 0.004zM418.189 122.965h-66.252c-88.862 0-164.841 78.771-164.841 181.005v158.596h223.504c59.945 0 112.711-51.759 115.881-121.847h-82.679c-59.788 0-104.311-51.75-104.311-110.524 0-50.018 32.244-94.95 78.699-107.23zM526.63 281.634v-102.882h-82.829c-22.801 0-45.225 20.766-45.225 51.443 0 30.673 22.425 51.439 45.225 51.439h82.829zM734.020 674.46c-5.559 5.559-13.107 8.672-20.971 8.649l-107.127-0.312c-16.316-0.047-29.504-13.313-29.457-29.629s13.312-29.504 29.632-29.457l39.373 0.115-61.167-66.253c-11.068-11.988-10.321-30.681 1.664-41.749 11.989-11.068 30.682-10.321 41.749 1.668l55.689 60.319-0.098-40.206c-0.043-16.316 13.15-29.577 29.47-29.615 16.316-0.043 29.572 13.154 29.615 29.469l0.286 116.035c0.021 7.863-3.093 15.409-8.657 20.968z" />
</font>
</defs>
</svg>
